<svg width="720" height="661" viewBox="0 0 720 661" fill="none" xmlns="http://www.w3.org/2000/svg">
<g opacity="0.2">
<path d="M323.167 0.0117508H321.482C327 8.29981 332.491 16.6644 333.931 18.73C343.384 32.2459 352.03 42.4083 361.439 50.199C370.014 57.314 375.936 66.0611 381.829 78.7864C382.694 80.6349 383.558 82.5607 384.567 84.9454L387.19 91.002C392.594 103.472 396.225 109.873 401.743 115.202C407.335 120.596 411.253 127.507 414.482 136.586C415.346 139.072 416.168 141.674 417.075 144.836L419.28 152.665C421.225 159.41 422.695 163.248 424.727 166.104C427.494 170.032 429.424 174.558 431.975 182.348C432.644 184.394 433.296 186.442 433.935 188.494C434.77 191.096 435.433 193.085 436.125 195.087C437.778 199.937 439.726 204.704 441.961 209.368C443.618 212.81 447.624 216.38 454.065 220.563C458.379 223.314 462.8 225.928 467.322 228.405C480.391 235.736 484.239 238.069 488.23 241.461C490.39 243.305 492.421 245.264 494.312 247.327C497.049 250.298 505.176 260.575 506.905 262.385C508.545 264.267 510.574 265.856 512.885 267.065C516.199 268.646 519.47 269.488 525.667 270.61C540.955 273.377 547.007 275.098 557.512 281.066C566.633 286.255 571.749 289.736 576.23 293.6C576.922 294.199 577.614 294.811 578.363 295.512L583.493 300.294C585.799 302.423 587.989 304.349 590.554 306.491C597.466 312.323 605.825 316.642 614.964 319.102C626.678 322.289 637.255 322.57 654.187 321.346C662.573 320.746 663.352 320.695 665.974 320.695C681.118 320.695 691.234 320.542 703.122 319.892C708.958 319.586 714.361 319.178 719.29 318.655V317.507C705.485 318.948 687.833 319.42 665.974 319.42C663.294 319.42 662.515 319.471 654.071 320.083C637.313 321.281 626.88 321.001 615.382 317.877C606.455 315.48 598.288 311.266 591.533 305.573C588.997 303.443 586.822 301.518 584.544 299.414C583.68 298.61 580.279 295.423 579.4 294.632C578.691 293.977 577.97 293.331 577.239 292.695C572.686 288.754 567.498 285.223 558.29 279.994C547.598 273.912 541.417 272.153 525.955 269.361C519.888 268.264 516.733 267.447 513.562 265.943C511.762 265.076 509.989 263.661 508 261.57C506.343 259.81 498.202 249.546 495.435 246.523C493.418 244.343 491.386 242.367 489.239 240.531C485.132 237.062 481.256 234.716 468.1 227.321C463.603 224.865 459.206 222.271 454.915 219.543C448.676 215.462 444.814 212.02 443.287 208.87C441.125 204.408 439.295 199.869 437.494 194.717C436.376 191.503 435.319 188.272 434.324 185.027L433.358 181.992C430.779 174.099 428.805 169.483 425.937 165.441C424.021 162.712 422.579 158.964 420.677 152.346L418.473 144.517C417.566 141.329 416.744 138.715 415.85 136.203C412.579 126.972 408.559 119.895 402.81 114.336C397.449 109.172 393.875 102.86 388.544 90.5423L385.921 84.4857C384.884 82.1018 384.034 80.1634 383.17 78.3019C377.19 65.4236 371.181 56.5362 362.42 49.281C353.125 41.5667 344.552 31.4936 335.156 18.0542C333.773 16.0651 328.528 8.08302 323.153 0.0117508H230.095C241.839 5.11209 251.494 10.8755 255.889 16.2053C258.512 19.4058 261.681 23.0653 265.86 27.7321C268.241 30.3879 270.633 33.0358 273.036 35.6758L274.506 37.2952C276.382 39.3629 278.256 41.4327 280.126 43.5049C288.772 53.1317 294.608 59.9534 299.132 65.959C302.101 69.9118 303.138 70.8809 309.406 76.2363C318.153 83.6826 321.828 91.18 325.185 113.405C327.346 127.813 332.26 138.957 341.136 152.614C342.491 154.717 347.289 161.883 347.044 161.501C349.321 164.944 350.92 167.481 352.318 169.968C356.353 177.146 358.327 183.318 358.327 189.999C358.327 211.841 374.913 242.839 391.224 255.832C410.533 271.196 431.14 295.895 436.125 313.529C438.79 322.965 446.284 328.639 457.293 331.432C463.633 333.038 469.224 333.446 477.207 333.446C478.389 333.446 478.619 333.434 482.438 333.14C489.901 332.566 495.003 332.694 501.545 334.122C510.479 336.073 519.701 340.357 529.543 347.625C553.535 365.31 596.663 376.799 632.832 376.799C636.275 376.799 638.97 376.773 645.44 376.722C661.002 376.57 668.207 376.595 677.069 377.003C693.179 377.717 706.94 379.668 719.29 383.378V384.717C706.955 380.968 693.179 378.992 676.997 378.278C668.164 377.883 661.002 377.844 645.44 377.998C638.984 378.048 636.275 378.074 632.832 378.074C596.346 378.074 552.901 366.509 528.621 348.594C518.937 341.454 509.902 337.272 501.199 335.358C494.859 333.969 489.887 333.854 482.567 334.415C478.677 334.708 478.446 334.721 477.207 334.721C469.109 334.721 463.417 334.313 456.889 332.656C445.433 329.748 437.523 323.768 434.713 313.835C429.813 296.494 409.366 271.987 390.273 256.775C373.659 243.552 356.886 212.211 356.886 189.999C356.886 183.534 354.97 177.542 351.021 170.541C349.638 168.081 348.067 165.569 345.805 162.151C346.065 162.534 341.252 155.355 339.883 153.251C330.934 139.455 325.948 128.183 323.744 113.584C320.43 91.6136 316.899 84.3836 308.412 77.1543C302.057 71.7352 300.976 70.7279 297.921 66.6732C293.44 60.7058 287.633 53.9095 278.987 44.2954C277.125 42.2251 275.257 40.1595 273.382 38.0985L271.912 36.4664C269.518 33.8204 267.125 31.1724 264.736 28.5226C260.558 23.8431 257.359 20.1708 254.722 16.9576C250.125 11.3855 239.504 5.27784 226.767 0.0117508H323.167ZM155.684 0.0117508C155.698 0.802302 155.77 1.63116 155.871 2.49822C156.779 10.3144 160.842 20.1326 166.606 30.3333C169.229 34.9746 170.454 41.1204 170.511 48.4011C170.569 54.3941 169.834 60.795 168.594 67.1831C168.162 69.3508 167.716 71.3399 167.255 73.1378C166.884 74.6315 166.61 76.1429 166.434 77.6644C165.767 84.7325 165.343 91.8162 165.165 98.9069C164.935 112.194 166.232 120.839 169.099 121.821C170.497 122.305 172.774 121.056 176.116 117.957C177.514 116.669 179.041 115.126 181.232 112.806C183.167 110.773 185.098 108.737 187.025 106.698C188.754 104.926 189.792 102.745 190.627 99.6846C190.858 98.7922 190.915 98.5888 191.406 96.3189C192.414 91.8177 193.206 89.9054 195.195 88.4773C197.731 86.6789 201.737 86.6924 207.991 88.668C217.833 91.7798 222.472 95.962 222.876 101.661C223.207 106.29 221.017 111.352 215.585 120.176C212.026 125.952 205.066 128.872 193.596 130.784C192.342 131.001 191.031 131.193 189.474 131.422L185.498 131.97C176.016 133.309 172.24 134.393 170.929 136.726C170.352 137.759 169.863 138.753 169.488 139.735C168.378 142.63 168.018 145.601 168.162 150.063C168.264 152.984 169.603 168.807 169.503 167.622C171.477 193.825 176.779 204.344 191.103 214.914C193.662 216.781 196.276 218.588 198.942 220.333L203.394 223.266L208.178 226.466C215.902 231.695 220.398 235.469 224.202 239.714C224.951 240.544 225.7 241.411 226.536 242.43L230.773 247.671C232.613 249.915 234.53 252.11 236.522 254.251C241.911 260.052 248.914 266.67 258.684 274.971C271.047 285.49 278.195 289.991 281.668 289.889C284.045 289.8 284.708 287.798 285.097 281.232C285.227 279.179 285.27 278.49 285.386 277.432C285.731 273.67 286.437 270.941 287.806 268.748C293.786 259.211 298.268 253.919 304.492 250.961C313.355 246.753 323.052 249.941 333.686 262.297C342.764 272.854 348.63 276.45 355.243 276.718C356.929 276.794 358.024 276.718 361.627 276.386C370.95 275.507 376.973 276.068 386.728 279.956C390.532 281.408 394.166 283.184 397.579 285.26C403.299 288.857 405.85 292.236 408.66 298.777C408.891 299.325 410.432 303.036 410.951 304.221C411.931 306.516 412.911 308.53 414.035 310.609C416.917 315.939 420.663 321.32 425.908 327.313C435.289 338.075 446.889 344.182 462.019 347.689C468.071 349.091 471.832 349.665 483.937 351.259C496.328 352.865 502.15 354.026 507.784 356.461C513.952 359.139 546.1 371.673 549.399 372.999C555.9 375.596 562.342 378.304 568.723 381.121C580.409 386.311 588.997 390.825 594.386 394.803C603.695 401.663 615.093 406.253 635.339 412.361C638.025 413.173 640.715 413.976 643.408 414.771C651.117 417.066 655.8 418.545 660.483 420.203C682.56 428.019 698.396 452.628 698.396 479.443C698.396 493.724 694.447 505.684 686.075 518.996C681.565 526.136 682.588 524.798 665.124 547.379C651.002 565.651 649.662 569.948 655.181 573.48C655.901 573.952 659.129 575.788 659.172 575.814C662.177 577.726 665.019 579.831 667.674 582.113C668.812 583.044 676.133 589.152 678.409 591C682.156 594.035 685.341 596.483 688.396 598.625C691.818 601.107 695.516 603.278 699.433 605.102C703.136 606.747 706.998 607.525 714.707 608.494C716.235 608.688 717.763 608.883 719.29 609.081V610.356L714.505 609.757C706.653 608.775 702.689 607.971 698.799 606.25C694.79 604.383 691.005 602.162 687.501 599.62C684.418 597.452 681.19 594.991 677.444 591.931C675.152 590.082 667.818 583.975 666.694 583.056C664.092 580.822 661.308 578.759 658.365 576.885C658.365 576.885 655.109 575.01 654.331 574.514C647.846 570.369 649.374 565.486 663.942 546.666C681.349 524.135 680.34 525.473 684.807 518.372C693.064 505.238 696.955 493.507 696.955 479.443C696.955 453.113 681.435 428.988 659.936 421.376C654.328 419.431 648.657 417.628 642.933 415.969C640.243 415.169 637.554 414.37 634.863 413.573C614.459 407.414 602.961 402.773 593.464 395.772C588.19 391.883 579.675 387.408 568.089 382.256C562.426 379.744 556.114 377.105 548.809 374.16C545.523 372.846 513.346 360.287 507.15 357.609C501.689 355.25 495.968 354.102 483.735 352.509C471.572 350.928 467.783 350.341 461.659 348.925C446.24 345.355 434.367 339.095 424.77 328.103C420.085 322.853 416.05 317.171 412.738 311.157C411.585 309.041 410.605 306.988 409.597 304.681C409.078 303.482 407.536 299.758 407.305 299.223C404.596 292.911 402.19 289.736 396.744 286.294C394.005 284.572 390.547 282.877 386.123 281.117C376.641 277.33 370.863 276.794 361.771 277.648C359.586 277.928 357.378 278.043 355.171 277.993C348.053 277.712 341.857 273.9 332.548 263.074C322.303 251.178 313.325 248.207 305.17 252.083C299.276 254.888 294.91 260.052 289.074 269.361C287.806 271.362 287.158 273.95 286.812 277.546C286.711 278.566 286.668 279.255 286.538 281.308C286.106 288.665 285.314 291.037 281.725 291.152C277.676 291.279 270.385 286.689 257.675 275.889C247.877 267.562 240.831 260.907 235.412 255.067C233.294 252.784 231.493 250.706 229.606 248.437L225.369 243.183C224.533 242.176 223.812 241.321 223.077 240.506C219.331 236.349 214.936 232.65 207.314 227.486C205.726 226.417 204.131 225.354 202.53 224.299L198.077 221.354C194.633 219.058 192.313 217.477 190.181 215.883C175.526 205.083 170.064 194.232 168.134 168.361C168.162 168.922 166.837 153.06 166.722 150.101C166.578 145.486 166.952 142.387 168.134 139.314C168.522 138.294 169.027 137.249 169.632 136.165C171.275 133.271 175.209 132.123 185.267 130.72L189.244 130.159C190.786 129.942 192.083 129.739 193.322 129.522C204.403 127.686 211.031 124.906 214.316 119.576C219.619 110.957 221.738 106.06 221.435 101.738C221.075 96.6377 216.867 92.8249 207.501 89.8793C201.679 88.0311 198.149 88.0176 196.089 89.4718C194.475 90.6191 193.754 92.3787 192.817 96.5736C192.584 97.7145 192.32 98.8491 192.025 99.9782C191.16 103.217 190.008 105.576 188.12 107.54C186.165 109.55 184.24 111.582 182.342 113.634C180.676 115.418 178.946 117.153 177.154 118.836C173.407 122.318 170.771 123.758 168.58 123.019C164.776 121.719 163.479 113.048 163.725 98.8816C163.855 91.76 164.278 84.6447 164.992 77.5496C165.555 74.0303 165.699 73.4693 165.857 72.8573C166.289 71.0722 166.75 69.0957 167.168 66.9664C168.419 60.8397 169.056 54.6271 169.07 48.4011C169.013 41.3117 167.831 35.3443 165.324 30.8943C159.488 20.5661 155.381 10.6332 154.43 2.62567C154.329 1.73311 154.271 0.840557 154.243 0.0117508H155.684ZM10.2324 0.0117508H12.3938C35.5214 11.0029 54.9744 22.0325 64.1534 30.1675C68.7645 34.235 71.2141 39.8836 72.1652 47.4322C72.8568 53.1062 72.7416 57.9898 71.877 71.8882C71.0845 84.5245 71.2429 91.4221 73.001 98.0532C74.6629 104.335 75.6806 110.736 76.0414 117.179L76.2431 120.048C77.3239 135.974 78.808 144.747 84.514 161.768C86.431 167.507 88.1021 173.589 89.5286 180.002C92.479 193.731 94.3898 207.617 95.2498 221.571C95.8978 231.21 96.0711 238.414 96.0711 247.378C96.0711 254.264 98.3909 262.551 103.535 270.33C110.552 280.913 122.08 289.532 138.839 295.232C143.712 296.838 148.433 298.782 152.96 301.047C161.894 305.636 165.915 309.87 170.511 318.107L173.335 323.245C177.196 330.277 182.168 336.787 188.105 342.576C198.668 353.032 212.069 360.07 239.404 371.316L245.874 373.968C268.497 383.276 279.448 388.632 288.916 396.091C301.395 405.909 309.694 421.911 317.85 447.49C319.623 453.061 325.17 471.767 325.242 472.022C327.937 480.846 330.055 486.915 332.332 491.952C338.413 505.404 347.491 515.808 370.547 538.339L372.765 540.507C383.947 551.447 389.913 557.606 395.648 564.491C399.827 569.527 403.818 574.692 408.487 581.029C410.418 583.656 417.998 594.162 419.928 596.751C430.736 611.44 438.718 620.378 448.863 628.143C452.832 631.208 457.1 633.956 461.616 636.355C471.572 641.621 480.564 644.35 497.798 648.086L506.819 650.049C510.349 650.814 513.361 651.516 516.301 652.243C531.719 656.029 541.315 661.041 555.077 671.088L562.224 676.316C564.724 678.148 567.27 679.929 569.861 681.659C572.612 683.515 575.662 684.993 578.91 686.045C583.565 687.524 587.413 687.983 596.116 688.429C610.597 689.169 617.788 690.24 628.782 694.333C634.143 696.335 648.985 701.55 651.55 702.506C655.197 703.846 658.757 705.366 662.213 707.058C669.619 710.73 676.796 715.614 686.637 723.788C695.802 731.387 702.344 735.097 709.693 737.316C711.977 737.993 714.295 738.58 716.638 739.075L719.29 739.662V740.976L716.293 740.313C713.28 739.65 711.264 739.139 709.232 738.527C701.666 736.232 694.966 732.432 685.657 724.705C675.887 716.608 668.798 711.789 661.492 708.168C658.088 706.499 654.581 705.001 650.987 703.679C648.452 702.723 633.609 697.508 628.221 695.519C617.413 691.477 610.353 690.431 596.044 689.704C587.196 689.258 583.248 688.787 578.421 687.244C575.038 686.149 571.861 684.61 568.997 682.679C566.547 681.059 564.141 679.363 561.302 677.298L554.169 672.057C540.538 662.111 531.114 657.19 515.926 653.454C512.986 652.74 509.989 652.051 506.473 651.273L497.453 649.322C480.103 645.548 470.996 642.781 460.867 637.438C456.428 635.093 452.148 632.338 447.912 629.099C437.653 621.232 429.612 612.217 418.718 597.439C416.801 594.825 409.207 584.332 407.277 581.717C402.637 575.393 398.66 570.242 394.496 565.243C388.804 558.396 382.852 552.25 371.7 541.348L369.48 539.181C346.295 516.535 337.16 506.054 331.006 492.423C328.701 487.323 326.553 481.203 323.859 472.34C323.772 472.073 318.24 453.38 316.467 447.834C308.383 422.459 300.17 406.623 287.965 397.021C278.627 389.677 267.762 384.36 245.254 375.115L238.77 372.451C211.291 361.141 197.76 354.039 187.039 343.417C181.016 337.543 175.971 330.94 172.053 323.806L169.215 318.655C164.748 310.622 160.9 306.58 152.254 302.13C147.787 299.904 143.127 297.994 138.32 296.418C121.259 290.603 109.472 281.793 102.295 270.954C97.0221 262.985 94.6295 254.467 94.6295 247.365C94.6295 238.427 94.457 231.235 93.8082 221.646C92.9498 207.749 91.043 193.918 88.1021 180.245C86.6898 173.869 85.033 167.812 83.1309 162.113C77.3959 144.989 75.8973 136.127 74.8022 120.112L74.6004 117.256C74.0673 109.911 73.3035 104.76 71.5888 98.3206C69.7876 91.5503 69.6435 84.5624 70.5801 69.5038C71.3006 57.977 71.4159 53.1317 70.7242 47.5596C69.8308 40.2788 67.4676 34.8853 63.1447 31.0473C53.8505 22.8358 33.7923 11.5385 10.2324 -0.000976562V0.0117508ZM658.971 0.0117508C652.342 1.64385 643.768 2.81698 629.791 4.25783L626.852 4.56384L623.927 4.85707C601.303 7.17773 592.254 8.77153 588.666 11.9338C585.121 15.0704 581.418 15.81 576.216 15.147C575.351 15.0195 574.631 14.9175 573.118 14.6497C568.017 13.7699 565.855 13.6679 563.262 14.5478C559.832 15.7081 556.907 18.7683 554.241 24.4806C551.229 30.958 547.267 32.7942 542.079 30.7158C539.99 29.8742 537.727 28.4334 534.86 26.2275C533.131 24.9014 526.272 19.24 526.892 19.75C517.237 11.9082 510.551 8.29981 503.145 8.29981C499.515 8.38898 495.917 7.67829 492.675 6.23154C489.432 4.78478 486.647 2.64739 484.57 0.0117508H486.386C488.356 2.26779 490.902 4.07932 493.814 5.29818C496.726 6.51705 499.924 7.10865 503.145 7.0247C511.027 7.0247 517.972 10.7607 527.871 18.8065C527.266 18.3219 534.111 23.9578 535.797 25.2712C538.578 27.4006 540.739 28.7776 542.67 29.5555C547.051 31.3023 550.192 29.8487 552.901 23.9961C555.711 17.9904 558.895 14.6624 562.743 13.3618C565.682 12.3673 568.031 12.4694 573.406 13.4001C574.89 13.6551 575.582 13.7827 576.417 13.8847C581.216 14.4967 584.472 13.8464 587.657 11.0412C591.605 7.54754 600.568 5.96641 623.768 3.59475L626.693 3.28874L629.633 2.9955C639.734 1.94994 647.011 1.04457 652.731 0.0117508H658.971ZM569.4 0.0117508C564.89 1.79686 555.135 5.66041 553.305 6.32345C549.659 7.62403 547.829 7.91727 545.84 7.48372C544.63 7.2287 539.097 4.86979 538.16 4.52551C532.931 2.62789 527.533 1.11813 522.021 0.0117508H527.771C531.498 0.917287 535.156 2.03315 538.722 3.35247C539.803 3.74775 545.149 6.01743 546.186 6.24695C547.8 6.60397 549.385 6.34896 552.771 5.13763C554.241 4.61485 560.985 1.94987 565.87 0.0117508H569.4ZM446.788 0.0117508C449.18 2.11564 450.967 4.67861 452.739 8.17235C452.883 8.49113 460.621 25.9852 464.887 34.184C471.112 46.106 473.388 55.4779 472.451 63.5491C471.688 70.0266 469.21 75.0504 463.921 82.3819L460.939 86.4621C459.261 88.7162 457.689 91.0305 456.226 93.3986C453.085 98.5627 447.869 97.5429 441.14 91.5242C435.837 86.7936 429.713 79.2836 421.254 67.6422L417.191 61.9553C400.864 39.0676 400.62 38.7233 395.951 33.5592C382.982 19.2145 375.748 8.45283 374.192 0.0117508H375.662C377.247 8.13406 384.307 18.6535 397.075 32.7687C401.801 37.9965 402.032 38.3025 418.401 61.2795C419.752 63.1757 421.111 65.0671 422.479 66.9537C430.88 78.5187 436.96 85.9779 442.163 90.6317C448.33 96.1274 452.436 96.9439 454.959 92.7996C456.27 90.6317 457.668 88.6047 459.714 85.7864L462.711 81.7062C467.884 74.5149 470.276 69.6568 471.011 63.4216C471.933 55.6053 469.714 46.4376 463.59 34.7068C459.295 26.4698 451.557 8.97558 451.428 8.6951C449.454 4.81884 447.523 2.19214 444.67 0.0117508H446.788ZM387.176 0.0117508H388.616C388.991 8.37632 393.126 15.453 401.7 25.1437L407.003 31.0473C408.62 32.8465 410.131 34.7192 411.528 36.6577C412.277 37.7032 416.326 43.6834 416.945 44.5887C419.828 48.8092 422.421 52.4305 425.015 55.8987C427.682 59.4779 430.528 62.9495 433.546 66.3033C438.906 72.1814 443.489 75.739 447.019 76.4658C450.866 77.2691 453.546 74.5786 454.887 67.4764C457.451 53.833 454.814 40.8017 448.186 28.6502C443.771 20.5498 437.826 13.1758 430.606 6.8462C427.335 4.22858 423.75 1.93668 419.914 0.0117508H422.681C425.869 1.71701 428.856 3.69894 431.6 5.92816C438.946 12.3638 444.994 19.863 449.483 28.1019C456.226 40.4702 458.921 53.7693 456.298 67.6932C454.857 75.4202 451.558 78.7227 446.687 77.7026C442.739 76.8865 437.969 73.2015 432.421 67.1066C429.684 64.1102 426.831 60.6037 423.819 56.6C421.196 53.119 418.617 49.4849 415.721 45.2517C415.087 44.3337 411.052 38.3663 410.317 37.3207C409.165 35.7141 407.781 34.0056 405.865 31.8379C404.971 30.8178 401.397 26.865 400.576 25.9342C391.787 16.0268 387.55 8.73331 387.176 0.0117508ZM164.402 0.0117508H165.843C165.497 2.24315 166.174 5.49461 168.076 9.98293C173.479 22.7465 175.381 27.5791 177.817 34.4007C178.624 36.6703 179.013 37.7543 179.604 39.3353C180.324 41.2225 180.699 43.3646 181.275 47.9294C181.418 49.0516 181.562 50.1737 181.708 51.2956C183.062 61.2413 185.267 65.6786 190.455 65.6786C196.866 65.6786 209.447 61.9935 227.646 55.5288C231.214 54.3156 234.874 53.3229 238.597 52.5579C240.256 52.1908 241.918 51.8338 243.583 51.4869C254.563 49.1152 259.016 47.4449 260.399 44.3974C261.667 41.5795 261.263 38.4046 259.361 34.8726C256.926 30.4353 252.243 25.6665 245.715 20.5917C243.266 18.6535 240.686 16.8046 237.689 14.739L231.782 10.7097C227.127 7.40729 214.187 2.96994 202.63 0.0117508H207.602C217.977 2.93169 228.496 6.73143 232.689 9.71511C233.482 10.2762 237.675 13.1196 238.583 13.7317C241.609 15.81 244.203 17.6844 246.681 19.6226C253.324 24.8249 258.122 29.6957 260.658 34.3242C262.733 38.1367 263.18 41.6815 261.725 44.882C260.096 48.5032 255.471 50.2374 243.929 52.7238C242.267 53.082 240.605 53.439 238.943 53.7948C234.332 54.8148 231.09 55.6692 228.193 56.702C209.749 63.2559 197.14 66.9537 190.455 66.9537C184.157 66.9537 181.722 62.0573 180.266 51.4487C180.112 50.3234 179.968 49.197 179.834 48.0696C179.272 43.6069 178.912 41.503 178.249 39.7434C177.644 38.1367 177.241 37.0658 176.434 34.7961C174.013 27.9872 172.11 23.18 166.722 10.4419C164.82 5.94088 164.07 2.51091 164.402 0.0117508ZM658.956 765.061H652.717C656.118 764.45 658.985 763.787 661.578 763.022C670.268 760.472 673.481 757.156 671.074 752.579C658.322 728.39 636.29 709.596 614.099 709.596C590.755 709.596 568.003 701.473 547.382 687.792C543.78 685.395 541.042 683.125 538.736 680.74C537.843 679.81 537.036 678.892 536.143 677.808L534.082 675.258C530.22 670.565 526.473 668.474 515.94 666.23C511.516 665.274 508.707 664.471 496.833 660.875L494.124 660.072C480.319 655.94 472.553 654.257 467.25 654.754C460.867 655.366 459.714 659.599 464.887 669.162C466.93 672.952 468.711 676.849 470.218 680.829C476.948 698.54 478.576 715.206 478.029 735.224L477.957 737.711L477.927 739.56C477.93 746.141 479.378 752.659 482.193 758.75C483.27 761.008 484.68 763.131 486.386 765.061H484.57C483.096 763.255 481.854 761.31 480.867 759.26C477.7 752.424 476.217 745.069 476.515 737.686L476.587 735.199C477.135 715.308 475.506 698.77 468.849 681.238C467.362 677.305 465.606 673.456 463.59 669.711C458.056 659.459 459.483 654.206 467.091 653.492C472.697 652.956 480.55 654.665 494.585 658.86L497.294 659.676C509.11 663.247 511.92 664.05 516.286 664.98C527.122 667.301 531.186 669.558 535.249 674.505L537.31 677.055C538.174 678.127 538.967 679.019 539.831 679.924C542.338 682.478 545.161 684.775 548.246 686.771C568.636 700.3 591.101 708.32 614.099 708.32C636.981 708.32 659.418 727.447 672.386 752.043C675.282 757.526 671.435 761.466 662.04 764.233C661.06 764.526 660.037 764.794 658.971 765.061H658.956ZM569.386 765.061H565.855L570.567 763.2C577.484 760.522 585.453 758.788 594.732 757.768C602.369 756.927 608.133 756.697 621.39 756.442C634.82 756.187 639.763 755.804 643.077 754.364C646.823 752.731 646.463 749.684 640.915 743.793C620.309 721.939 607.917 715.971 585.265 715.971C574.934 715.971 567.412 714.569 559.788 711.253C553.059 708.358 550.25 706.599 531.517 694.167C526.998 691.254 522.761 688.013 518.851 684.476C517.293 683.041 515.821 681.534 514.441 679.962C514.009 679.478 513.692 679.147 513.375 678.828C512.055 677.434 510.428 676.292 508.591 675.475C505.84 674.291 502.976 673.326 500.032 672.592L498.302 672.121L496.646 671.662C495.335 671.292 494.412 671.049 493.533 670.82C491.328 670.246 489.671 669.877 488.259 669.66C485.089 669.175 483.23 669.507 482.279 670.744C479.959 673.74 481.933 682.576 489.397 701.091C494.297 713.255 495.407 721.645 495.536 736.602C495.623 746.433 496.112 749.901 498.591 753.496C501.646 757.934 507.813 760.943 519.139 763.162C522.309 763.799 525.176 764.424 527.756 765.061H522.021L518.822 764.412C507.15 762.117 500.666 758.954 497.351 754.159C494.686 750.283 494.182 746.688 494.095 736.602C493.965 721.798 492.885 713.523 488.043 701.524C480.377 682.487 478.374 673.536 481.083 670.03C482.438 668.27 484.83 667.849 488.504 668.397C490.345 668.703 492.163 669.104 493.951 669.596L497.078 670.438L498.735 670.897L500.464 671.368C503.488 672.125 506.43 673.12 509.254 674.339C511.459 675.36 512.885 676.392 514.456 677.986L515.566 679.159L516.761 680.46C517.828 681.607 518.779 682.564 519.903 683.61C523.756 687.089 527.93 690.28 532.382 693.147C551.013 705.516 553.809 707.262 560.423 710.118C567.844 713.332 575.15 714.696 585.265 714.696C608.378 714.696 621.16 720.842 642.01 742.977C648.062 749.404 648.567 753.408 643.711 755.512C640.108 757.067 635.151 757.449 621.419 757.717C608.22 757.972 602.47 758.202 594.905 759.031C585.769 760.038 577.901 761.734 571.144 764.373L569.4 765.061H569.386ZM719.29 351.247V353.835C715.024 353.21 710.355 352.675 705.37 352.202C699.462 351.641 693.482 351.233 687.776 350.953C685.773 350.851 683.957 350.774 677.271 351.399C674.475 351.998 671.305 352.585 667.847 353.134C651.622 355.696 634.849 356.525 619.172 354.587C610.216 353.578 601.491 351.35 593.305 347.982C583.656 343.879 574.795 338.458 567.051 331.916C561.864 327.606 559.126 324.865 551.503 316.832C546.056 311.094 543.491 308.735 540.696 307.243C539.154 306.427 537.727 306.032 536.287 306.032C533.765 306.032 533.779 306.032 522.986 306.988C517.655 307.447 513.908 307.715 510.076 307.855C492.64 308.493 481.833 305.79 478.72 297.514C471.083 277.24 461.284 264.503 441.917 254.863C417.623 242.787 396.512 222.067 396.512 209.126C396.512 193.365 393.689 183.624 383.832 171.625C376.743 163.006 374.322 159.512 373.083 155.725C372.16 152.894 372.016 150.88 372.016 144.096C372.016 141.724 370.821 139.595 368.241 136.994C366.857 135.617 360.863 130.478 360.172 129.853C351.742 122.152 347.52 114.578 347.52 103.293C347.52 100.17 347.577 97.5049 347.693 93.9595C348.024 84.3836 347.937 82.6501 346.684 79.5898C345.099 75.7262 342.318 72.5385 330.589 60.7822C320.415 50.5815 317.735 47.1133 306.856 31.6211C305.559 29.7849 304.507 28.3186 303.441 26.9159C300.24 22.6253 296.625 18.5893 292.633 14.8537C287.042 9.60039 281.322 4.62755 275.486 0.0117508H279.78C284.942 4.21551 289.932 8.58346 294.737 13.1069C299.06 17.1616 302.446 21.0123 305.833 25.5006C306.928 26.9288 307.994 28.4078 309.291 30.2823C320.098 45.647 322.721 49.0388 332.75 59.0992C344.782 71.1615 347.621 74.4128 349.393 78.7226C350.834 82.2165 350.92 84.0656 350.574 94.0363C350.46 97.5555 350.402 100.195 350.402 103.293C350.402 113.838 354.292 120.826 362.246 128.068C362.867 128.629 368.933 133.832 370.403 135.311C373.414 138.333 374.898 140.998 374.898 144.096C374.898 150.599 375.042 152.511 375.849 155.011C376.973 158.415 379.264 161.756 386.152 170.12C396.426 182.617 399.395 192.881 399.395 209.126C399.395 220.881 419.856 240.952 443.33 252.644C463.417 262.641 473.619 275.901 481.458 296.698C484.009 303.469 493.721 305.892 509.96 305.305C513.706 305.177 517.439 304.91 522.698 304.438C533.679 303.482 533.621 303.482 536.287 303.482C538.275 303.482 540.22 304.017 542.18 305.063C545.351 306.758 548.045 309.22 553.708 315.187C561.259 323.156 563.968 325.847 569.026 330.067C576.552 336.427 585.165 341.698 594.545 345.687C602.462 348.939 610.9 351.09 619.56 352.062C634.921 353.962 651.391 353.146 667.328 350.622C670.744 350.073 673.856 349.5 676.608 348.925C677.559 348.722 678.409 348.543 682.458 348.161C690.218 348.435 697.964 348.933 705.686 349.652C710.543 350.124 715.096 350.647 719.29 351.247ZM719.29 368.333V369.671L718.886 369.519C708.569 365.604 701.84 364.048 691.911 364.048C686.767 364.048 684.807 364.138 669.36 365.017C652.01 365.999 641.059 366.292 628.58 365.718C612.009 364.979 596.735 362.658 582.239 358.31C576.764 356.653 571.432 354.74 566.245 352.509C555.956 348.097 548.391 343.8 542.324 339.222C540.024 337.478 537.83 335.627 535.753 333.676C535.177 333.127 531.719 329.85 530.782 328.996C522.713 321.702 514.182 319.42 488.734 319.42C461.587 319.42 454.483 315.723 448.042 299.248C447.509 297.859 447.076 296.8 446.63 295.716C445.525 293.051 444.225 290.453 442.739 287.938C438.992 281.627 433.776 275.647 426.283 269.526C386.469 237.012 375.618 222.157 375.618 197.649C375.618 187.092 372.809 179.11 366.541 169.598C365.057 167.328 353.831 151.976 350.301 146.442C348.01 142.833 345.935 139.226 343.975 135.438C338.788 125.34 337.563 117.625 337.058 101.521C336.77 91.9198 336.353 87.8776 334.782 83.3385C332.764 77.5368 329.018 73.0612 322.635 69.4018C317.72 66.5966 312.432 60.6675 305.257 50.7091C303.772 48.6562 302.302 46.5395 300.213 43.5049C291.783 31.3533 289.939 28.7648 286.423 24.6208C280.659 17.8119 274.362 12.7626 265.139 7.17771C261.006 4.69473 256.802 2.3053 252.531 0.0117508H255.269C259.837 2.52367 263.021 4.34705 265.961 6.13217C275.298 11.768 281.696 16.9194 287.576 23.8558C291.12 28.0508 292.98 30.6393 301.423 42.8418C303.081 45.2479 304.761 47.6408 306.466 50.0205C313.527 59.8386 318.743 65.6531 323.412 68.3307C330.084 72.156 334.061 76.8738 336.165 82.969C337.779 87.6608 338.211 91.7671 338.514 101.496C339.004 117.434 340.214 125.009 345.286 134.903C347.197 138.62 349.288 142.261 351.555 145.818C355.056 151.3 366.281 166.653 367.794 168.96C374.178 178.651 377.06 186.85 377.06 197.649C377.06 221.711 387.723 236.284 427.263 268.583C434.872 274.805 440.189 280.913 444.007 287.326C445.52 289.876 446.774 292.426 447.97 295.27C448.43 296.367 448.863 297.438 450.664 302.117C453.201 308.595 455.347 311.604 459.844 313.95C465.29 316.794 474.167 318.145 488.734 318.145C514.528 318.145 523.419 320.53 531.805 328.091C532.77 328.97 536.215 332.26 536.791 332.796C538.836 334.715 540.996 336.537 543.261 338.253C549.227 342.754 556.691 347 566.864 351.361C572.002 353.563 577.292 355.479 582.7 357.099C597.067 361.409 612.211 363.704 628.667 364.443C641.059 365.005 651.968 364.724 669.259 363.742C684.764 362.862 686.724 362.773 691.911 362.773C701.061 362.773 707.574 364.073 719.29 368.32V368.333ZM719.29 336.353V337.628C712.473 337.679 705.758 337.552 697.646 337.272C688.41 336.94 680.657 337.781 662.529 340.497L659.85 340.893C641.765 343.596 631.967 344.411 621.707 343.404C608.379 342.091 597.672 337.348 589.041 328.103C562.815 300.001 545.552 290.093 524.759 290.093C521.012 290.093 517.828 290.476 512.986 291.342C506.084 292.58 504.801 292.745 502.078 292.58C498.389 292.324 495.305 290.96 492.395 288.04C489.008 284.636 485.767 279.051 482.293 270.547C477.25 258.152 469.065 250.757 451.212 239.562L447.609 237.292C438.488 231.58 433.733 228.239 429.194 223.993C423.329 218.497 419.438 212.543 417.421 205.453C412.637 188.494 409.539 179.479 406.412 173.143C405.269 170.832 403.97 168.583 402.522 166.41C401.585 165.008 401.023 164.178 398.775 161.004C396.354 157.561 395.778 154.348 395.489 146.494C395.23 139.557 394.87 136.42 393.458 132.506C391.762 127.811 388.665 123.608 384.495 120.341C376.858 114.132 373.53 107.552 371.67 97.6576C371.411 96.2936 371.238 95.2602 370.835 92.7355C369.437 83.9374 368.399 80.0613 365.618 75.5477C362.088 69.8098 359.221 66.89 337.26 45.6343L333.154 41.6305C320.603 29.3259 313.225 21.0761 309.406 14.3182C306.352 8.89907 302.648 4.62755 297.014 0.0117508H299.103C304.248 4.37254 307.749 8.54208 310.703 13.7572C314.435 20.3621 321.756 28.5609 334.219 40.7889L338.327 44.7672C360.445 66.1886 363.255 69.0575 366.887 74.9357C369.768 79.6277 370.849 83.6059 372.261 92.5575C372.665 95.0696 372.837 96.1021 373.083 97.4535C374.898 107.093 378.097 113.417 385.475 119.398C389.832 122.813 393.067 127.205 394.841 132.11C396.282 136.191 396.672 139.404 396.93 146.455C397.219 154.08 397.752 157.153 400 160.34C401.289 162.128 402.542 163.935 403.761 165.76C405.236 167.979 406.559 170.274 407.723 172.632C410.893 179.059 414.02 188.125 418.819 205.147C422.335 217.566 429.842 224.605 448.446 236.259L452.048 238.516C470.117 249.865 478.475 257.413 483.648 270.113C487.048 278.49 490.233 283.947 493.475 287.199C496.156 289.876 498.865 291.088 502.179 291.304C504.715 291.471 505.968 291.304 512.698 290.093C517.626 289.201 520.912 288.818 524.759 288.818C546.071 288.818 563.665 298.929 590.164 327.3C598.522 336.264 608.897 340.867 621.865 342.142C631.953 343.137 641.65 342.32 659.619 339.643L662.285 339.235C680.513 336.494 688.323 335.665 697.704 335.996C705.73 336.277 712.401 336.404 719.29 336.353ZM719.29 642.781V645.382C713.785 644.515 706.609 643.929 696.263 643.33C691.782 643.074 690.412 642.986 688.194 642.832C662.919 641.175 649.085 637.681 640.354 628.169C634.921 622.24 627.5 618.962 617.298 617.114C613.666 616.464 611.721 616.221 604.084 615.418C596.159 614.576 592.47 613.939 589.156 612.562C584.703 610.713 582.398 607.691 582.398 603.139C582.398 584.931 595.539 554.074 611.505 534.795C620.655 523.753 630.699 507.686 636.16 494.323C642.947 477.709 642.515 466.412 633.667 462.765C628.422 460.597 627.745 460.317 625.353 459.386C615.742 455.65 607.773 453.406 600.136 452.692C597.009 452.398 594.04 452.386 591.202 452.666C587.239 453.074 584.646 454.477 580.611 457.869L578.637 459.551C577.367 460.646 576.025 461.673 574.616 462.625C572.759 463.822 570.798 464.887 568.751 465.812L565.668 467.253C561.201 469.319 559.039 470.67 557.656 472.507C552.613 479.214 549.731 491.377 547.814 508.91C547.401 512.747 547.06 516.59 546.791 520.437L546.546 523.217C545.495 535.419 544.298 542.496 541.935 547.519C533.505 565.422 503.865 591.65 488.734 591.65C481.04 591.65 475.002 589.432 468.374 584.676C464.857 582.151 451.5 570.497 448.863 568.368C441.701 562.604 435.116 555.412 427.738 545.824C425.001 542.254 413.906 526.978 411.181 523.522C408.83 520.642 406.213 517.938 403.357 515.439C401.196 513.488 393.083 506.564 392.838 506.36C382.319 497.205 376.181 490.166 372.117 481.19C370.186 476.906 368.097 470.824 364.365 458.94C362.786 453.934 361.211 448.927 359.638 443.919C357.928 438.517 356.151 433.132 354.307 427.764C345.315 401.752 336.9 384.411 327.736 375.753C315.92 364.609 307.792 360.733 290.241 355.696C281.278 353.121 277.215 351.756 271.912 349.231C246.393 337.067 215.181 312.624 206.42 293.765C198.019 275.723 189.504 269.054 180.367 269.054C176.203 269.054 168.264 265.573 160.583 260.346C151.649 254.276 144.213 246.766 140.15 238.988C131.836 223.049 125.611 196.273 125.611 178.524C125.611 171.74 123.449 165.99 118.564 157.586C111.777 145.856 111.201 144.708 111.201 140.271C111.201 126.984 107.527 99.3919 102.598 81.923L101.186 76.9758L99.9037 72.5513C98.9526 69.236 98.3474 67.0302 97.8434 64.9901C96.6043 60.0172 96.0711 56.3704 96.1573 52.7747C96.2435 49.2809 96.9066 45.8001 98.2896 41.7198C100.264 35.9054 96.9928 24.2384 90.1054 12.5586C87.5371 8.15843 84.548 3.96083 81.1711 0.0117508H84.6295C96.3591 14.1524 104.313 32.8579 101.056 42.4592C99.8427 45.8149 99.1639 49.3041 99.0389 52.8257C98.9669 56.1792 99.4717 59.6602 100.653 64.4418C101.667 68.4266 102.773 72.3929 103.967 76.3382L105.394 81.3114C110.38 98.9836 114.083 126.781 114.083 140.271C114.083 144.084 114.66 145.256 121.129 156.426C126.187 165.16 128.493 171.23 128.493 178.524C128.493 195.929 134.631 222.322 142.758 237.917C146.605 245.287 153.739 252.478 162.326 258.318C169.56 263.227 177.025 266.504 180.367 266.504C190.843 266.504 200.281 273.9 209.072 292.797C217.545 310.992 248.28 335.078 273.267 346.988C278.382 349.41 282.316 350.749 291.134 353.274C309.103 358.438 317.634 362.493 329.839 374.019C339.407 383.046 347.952 400.63 357.059 427.024C358.907 432.405 360.69 437.803 362.405 443.218C364.004 448.228 365.579 453.243 367.131 458.264C370.849 470.046 372.909 476.076 374.797 480.246C378.673 488.827 384.596 495.611 394.856 504.537C395.072 504.728 403.213 511.677 405.403 513.654C408.376 516.254 411.099 519.069 413.545 522.069C416.312 525.563 427.422 540.877 430.116 544.383C437.379 553.819 443.834 560.883 450.794 566.481C453.532 568.674 466.803 580.251 470.189 582.687C476.328 587.111 481.761 589.1 488.734 589.1C502.424 589.1 531.243 563.598 539.284 546.538C541.489 541.858 542.656 534.935 543.679 523.013C543.84 521.169 543.994 519.324 544.14 517.478C544.472 513.348 544.673 511.014 544.933 508.642C546.907 490.689 549.832 478.27 555.264 471.091C556.993 468.771 559.458 467.24 564.328 464.971L567.397 463.556C569.312 462.689 571.148 461.692 572.887 460.572C574.083 459.781 575.192 458.915 576.648 457.69C576.994 457.397 578.319 456.288 578.622 456.007C583.075 452.271 586.158 450.601 590.871 450.129C593.926 449.823 597.11 449.836 600.439 450.142C608.436 450.894 616.649 453.202 626.52 457.039C628.926 457.983 629.618 458.264 634.878 460.431C645.642 464.882 646.117 477.429 638.869 495.178C633.307 508.783 623.134 525.053 613.825 536.299C598.19 555.158 585.279 585.504 585.279 603.126C585.279 609.501 589.631 611.287 604.43 612.868C608.94 613.256 613.427 613.835 617.874 614.602C628.682 616.552 636.664 620.085 642.601 626.549C650.642 635.309 663.899 638.662 688.424 640.282C690.614 640.422 691.984 640.511 696.45 640.766C706.551 641.353 713.727 641.927 719.29 642.769V642.781ZM719.29 632.516V633.817C717.258 633.448 715.053 633.078 712.675 632.67L704.577 631.331C685.413 628.143 675.873 625.976 669.922 622.813C665.83 620.646 661.997 618.121 654.028 612.549C639.1 602.081 633.062 598.676 627.068 598.676L624.632 598.701C622.067 598.727 620.742 598.727 619.2 598.676C611.923 598.409 607.384 596.802 605.655 592.759C603.494 587.761 606.289 579.512 614.92 567.105C623.393 554.916 630.339 544.753 637.485 534.067C638.61 532.397 649.604 515.872 652.544 511.537C654.401 508.8 656.274 506.071 658.164 503.351C670.412 485.729 665.44 453.699 646.881 444.315C637.831 439.724 634.604 438.525 621.923 434.395C620.437 433.919 618.963 433.417 617.5 432.89C613.639 431.502 609.951 429.768 606.491 427.713C586.346 415.816 568.881 408.688 553.578 408.688C548.304 408.688 544.039 407.733 532.18 404.404C529.817 403.741 528.347 403.346 526.805 402.938C509.182 398.297 499.253 399.062 492.222 408.408C489.309 412.216 487.443 416.573 486.775 421.133C485.435 430.314 488.461 439.609 495.248 451.62C496.372 453.597 500.204 460.087 500.911 461.311C501.94 463.107 503.046 464.868 504.225 466.59L508.058 472.2C518.03 487.017 521.286 498.213 516.819 514.036C515.608 518.27 514.801 521.993 513.015 530.74C509.571 547.634 507.612 554.584 503.706 560.487C498.418 568.431 490.708 570 479.714 564.16C470.077 559.026 461.208 552.839 453.315 545.747C449.494 542.33 445.812 538.791 442.278 535.139C442.35 535.228 434.641 527.284 432.523 525.167C429.65 522.264 426.606 519.497 423.402 516.879C411.211 507.061 404.15 500.584 396.642 491.276C386.411 478.601 378.832 463.989 374.192 446.418C361.742 399.202 355.892 381.389 348.356 371.406C340.099 360.44 312.663 344.246 269.376 324.431C254.822 317.775 242.862 308.786 232.329 297.489C226.219 290.948 221.882 285.299 214.706 275.111C208.049 265.65 205.858 262.845 202.948 260.6C200.811 259.073 198.45 257.807 195.93 256.839C194.057 256.061 186.607 253.18 186.175 253.014C181.852 251.28 178.393 249.75 175.036 247.977C159.228 239.651 149.098 227.538 145.064 207.94C141.75 191.707 141.173 182.629 141.75 170.095C141.937 165.951 141.98 164.829 141.951 162.954C141.85 156.388 140.453 150.574 136.475 141.776C124.516 115.331 119.126 92.366 119.126 66.3033C119.126 62.4143 119.343 58.6146 119.818 52.9405L120.049 50.2755C121.432 34.4007 121.432 27.2221 119.141 17.9649C117.574 11.6569 114.925 5.59813 111.287 -0.000976562H112.944C116.452 5.53457 119.016 11.4983 120.553 17.6971C122.873 27.1073 122.873 34.3753 121.489 50.3775L121.259 53.0297C120.784 58.6783 120.568 62.4526 120.568 66.3033C120.568 92.1872 125.928 115.012 137.802 141.291C141.836 150.23 143.277 156.21 143.392 162.929C143.421 164.842 143.378 165.977 143.19 170.146C142.614 182.591 143.176 191.567 146.505 207.723C150.439 226.925 160.309 238.733 175.771 246.881C179.322 248.728 182.993 250.388 186.765 251.854C187.169 252.006 194.647 254.901 196.549 255.692C199.191 256.708 201.663 258.038 203.899 259.644C206.968 262.016 209.172 264.834 215.931 274.435C223.077 284.572 227.386 290.183 233.438 296.673C243.857 307.842 255.673 316.73 270.039 323.309C313.556 343.214 341.108 359.47 349.566 370.691C357.232 380.867 363.097 398.705 375.604 446.137C380.187 463.543 387.694 477.99 397.824 490.536C405.259 499.742 412.248 506.182 424.381 515.936C427.621 518.581 430.7 521.377 433.603 524.314C435.736 526.443 443.445 534.399 443.359 534.31C447.451 538.479 450.794 541.706 454.339 544.842C462.151 551.852 470.928 557.966 480.463 563.037C490.78 568.52 497.597 567.144 502.453 559.811C506.242 554.112 508.202 547.214 511.66 530.179C512.689 524.65 513.938 519.155 515.407 513.704C519.773 498.263 516.617 487.387 506.819 472.825L503.001 467.215C501.559 465.099 500.508 463.441 499.614 461.859C498.922 460.648 495.089 454.158 493.965 452.169C487.049 439.941 483.965 430.442 485.348 420.943C486.043 416.192 487.981 411.651 491.012 407.681C498.518 397.711 509.053 396.907 527.223 401.689C528.765 402.096 530.249 402.504 532.612 403.167C544.312 406.445 548.52 407.388 553.578 407.388C569.256 407.388 586.922 414.605 607.298 426.616C610.676 428.624 614.278 430.321 618.047 431.678C619.344 432.15 620.67 432.61 622.428 433.183C635.181 437.327 638.466 438.551 647.601 443.18C666.939 452.959 672.025 485.806 659.388 504.001C657.5 506.711 655.632 509.431 653.783 512.161C650.843 516.497 639.849 533.022 638.725 534.693C631.563 545.378 624.632 555.552 616.159 567.742C607.73 579.856 605.064 587.761 606.995 592.275C608.465 595.692 612.499 597.121 619.258 597.375C621.043 597.432 622.832 597.441 624.618 597.401L627.068 597.375C633.552 597.375 639.647 600.805 655.7 612.065C662.832 617.063 666.637 619.549 670.671 621.691C676.392 624.739 685.888 626.893 704.851 630.056L712.949 631.394L719.29 632.491V632.516ZM719.29 619.129V620.403C718.8 620.365 718.309 620.352 717.849 620.352C699.995 620.352 669.475 609.54 655.354 595.922C653.544 594.178 651.53 592.609 649.345 591.243C647.105 589.855 644.744 588.627 642.284 587.57C641.247 587.111 637.01 585.339 636.002 584.893C626.938 580.787 626.578 576.171 636.564 563.254C637.86 561.546 642.558 555.515 642.875 555.094C645.469 551.753 647.486 549.139 649.446 546.551C654.331 540.137 658.38 534.603 661.982 529.324C674.475 511.052 681.104 496.823 681.104 485.831C681.104 464.333 672.53 444.123 659.778 435.338C656.838 433.311 652.328 431.257 645.901 428.886C643.135 427.866 640.051 426.795 636.102 425.482L625.54 421.988C607.614 416.046 598.076 412.093 592.009 407.248C579.343 397.175 540.134 388.287 516.113 388.287C513.375 388.287 511.632 388.071 504.196 386.987C501.027 386.515 499.009 386.247 496.891 386.044C488.951 385.24 483.259 385.775 479.037 388.185C468.806 394.05 465.736 413.304 472.149 437.225C474.262 445.522 477.304 453.611 481.227 461.375C484.642 467.967 495.263 483.192 494.772 482.414C500.018 490.983 500.752 498.952 496.646 514.036C486.357 551.715 484.225 552.837 458.014 533.494C427.854 511.256 391.469 473.412 391.469 461.605C391.469 448.956 374.207 392.954 365.604 377.73C358.788 365.668 335.084 346.719 311.063 330.781C309.694 329.875 279.938 313.567 268.411 306.299C249.491 294.378 235.917 283.067 228.741 271.936C222.732 262.641 213.928 255.156 201.751 247.964C197.572 245.504 176.318 234.551 172.342 231.733C169.56 229.769 167.716 227.907 166.736 225.97C157.73 208.029 153.709 195.087 153.709 175.986V139.009C153.709 133.845 153.133 129.624 150.107 109.771L149.286 104.288C147.412 91.6389 146.505 83.1596 146.505 76.5295C146.505 74.4129 146.519 72.768 146.563 68.8408C146.836 45.1114 145.871 32.4371 140.755 11.6405C139.79 7.68776 138.19 3.82427 135.986 0.0245244H137.6C139.651 3.6242 141.185 7.43642 142.167 11.3728C147.298 32.2841 148.277 45.035 148.003 68.8535C147.96 72.7808 147.946 74.4129 147.946 76.5295C147.946 83.0963 148.854 91.5242 150.712 104.122L151.548 109.605C154.588 129.548 155.15 133.755 155.15 139.009V175.986C155.15 194.87 159.113 207.659 168.062 225.459C168.926 227.167 170.626 228.889 173.249 230.738C177.111 233.492 198.307 244.407 202.544 246.906C214.893 254.2 223.87 261.824 229.98 271.298C237.041 282.226 250.485 293.434 269.232 305.254C280.717 312.497 310.502 328.805 311.928 329.761C336.137 345.827 359.941 364.851 366.901 377.169C375.59 392.546 392.91 448.752 392.91 461.605C392.91 472.851 429.15 510.555 458.935 532.525C484.181 551.141 485.176 550.619 495.248 513.73C499.283 498.939 498.562 491.289 493.519 483.013C494.023 483.867 483.389 468.592 479.916 461.898C476.343 455 473.302 447.107 470.737 437.531C464.209 413.139 467.351 393.349 478.259 387.114C482.827 384.501 488.806 383.952 497.049 384.768C499.522 385.028 501.987 385.347 504.441 385.725C511.762 386.795 513.505 387.012 516.113 387.012C540.466 387.012 579.991 395.976 592.96 406.305C598.853 410.996 608.306 414.924 626.045 420.802C627.385 421.248 634.604 423.607 636.606 424.283C640.584 425.609 643.668 426.68 646.463 427.7C652.991 430.123 657.602 432.227 660.657 434.33C673.813 443.383 682.544 463.977 682.544 485.831C682.544 497.129 675.845 511.524 663.207 529.987C659.59 535.279 655.541 540.826 650.642 547.265C648.467 550.126 646.276 552.978 644.071 555.821L637.745 563.981C628.191 576.324 628.494 580.06 636.664 583.745C637.645 584.191 641.881 585.964 642.933 586.423C645.458 587.509 647.881 588.771 650.18 590.197C652.443 591.625 654.503 593.218 656.42 595.055C670.253 608.405 700.384 619.077 717.849 619.077L719.29 619.116V619.129ZM719.29 656.934V658.337C715.658 656.845 711.796 656.055 707.762 656.055C678.942 656.055 647.183 649.896 636.65 640.563C629.186 633.971 624.575 630.656 618.292 627.939C610.497 624.573 601.001 622.903 588.162 622.903C578.334 622.903 571.46 621.449 566.446 618.606C562.555 616.387 560.38 614.015 555.61 607.245C554.414 605.499 553.07 603.837 551.59 602.272C545.883 596.393 542.656 593.882 538.03 592.428C532.237 590.605 525.004 591.243 514.946 594.8C510.949 596.27 507.064 597.969 503.317 599.887L500.868 601.073C498.514 602.274 496.111 603.397 493.663 604.439C478.23 611.019 466.429 609.246 450.751 594.646C439.331 584.046 428.943 572.61 419.698 560.462C415.822 555.412 404.136 539.04 401.686 535.929C399.669 533.392 396.93 530.408 392.608 526.022C392.608 526.047 383.4 516.803 380.647 513.946C374.509 507.61 369.84 502.356 366.022 497.307C361.483 491.289 358.414 485.869 356.915 480.896C352.001 464.601 350.892 461.006 348.312 453.138C343.067 437.136 338.369 425.137 333.903 417.257C332.25 414.193 330.905 411.005 329.882 407.733C326.049 396.69 323.974 392.406 318.21 386.094C310.342 377.449 297.677 369.429 278.051 361.447C227.948 341.084 221.291 337.118 207.17 320.453C203.769 316.449 201.262 312.331 197.947 305.878L196.449 302.907C188.739 287.696 183.581 281.397 171.405 276.003C165.972 273.606 162.341 272.841 153.724 271.706C146.245 270.712 142.83 269.819 138.954 267.205C134.054 263.928 129.92 258.242 125.971 248.895C124.156 244.598 122.368 239.511 120.596 233.53C114.4 212.708 112.872 201.297 112.224 183.038C111.907 174.239 111.417 170.924 109.342 166.895C108.564 165.377 107.57 163.886 106.301 162.33C102.411 157.612 99.7597 151.95 98.1314 145.448C96.3013 138.167 95.912 131.817 96.0418 121.604L96.0711 118.607C96.0711 115.012 94.6295 109.937 89.3126 93.488C84.8747 79.6792 83.1024 73.1506 83.1024 68.879C83.1024 67.8335 83.2892 66.4564 83.6927 64.3525L84.9895 57.9643C87.4105 45.443 87.7136 35.7268 84.6872 25.8959C81.5461 15.7208 74.9318 7.02473 64.1678 0.0245244H66.531C76.6754 6.99923 82.9869 15.5932 86.056 25.5644C89.1544 35.6121 88.8513 45.4939 86.3875 58.1811L85.0907 64.5565C84.7157 66.5966 84.529 67.9227 84.529 68.879C84.529 72.9593 86.287 79.4877 90.9844 94.0489C96.0711 109.796 97.4976 114.833 97.4976 118.607L97.4683 121.617C97.3243 131.741 97.7136 138.002 99.5144 145.168C101.114 151.504 103.694 157.025 107.44 161.59C108.688 163.083 109.76 164.686 110.639 166.372C112.8 170.605 113.334 174.023 113.651 182.999C114.285 201.169 115.812 212.492 121.965 233.199C123.455 238.353 125.234 243.438 127.297 248.437C131.187 257.579 135.164 263.087 139.804 266.198C143.436 268.621 146.663 269.488 153.925 270.445C162.686 271.592 166.434 272.395 172.024 274.869C178.592 277.701 184.262 281.934 188.523 287.186C191.78 291.164 193.898 294.773 197.745 302.398L199.244 305.344C202.515 311.732 204.994 315.773 208.308 319.688C222.256 336.136 228.727 340 278.627 360.299C298.455 368.345 311.309 376.493 319.335 385.291C325.242 391.769 327.36 396.168 331.252 407.35C332.251 410.561 333.568 413.689 335.186 416.696C339.681 424.652 344.407 436.715 349.681 452.781C352.685 462.013 355.553 471.279 358.284 480.578C359.739 485.385 362.751 490.689 367.203 496.593C371.664 502.348 376.509 507.862 381.714 513.105C384.481 515.962 393.674 525.193 393.674 525.193C396.926 528.383 399.989 531.72 402.853 535.189C405.331 538.326 417.017 554.724 420.865 559.747C430.067 571.842 440.406 583.226 451.774 593.78C467.019 607.971 478.143 609.629 493.029 603.305C495.453 602.27 497.832 601.156 500.162 599.964L502.611 598.765C506.405 596.828 510.337 595.111 514.384 593.627C524.759 589.955 532.338 589.292 538.492 591.217C543.433 592.772 546.806 595.399 552.671 601.443C554.068 602.896 555.264 604.401 557.959 608.201C561.49 613.199 563.564 615.456 567.21 617.522C571.965 620.238 578.579 621.628 588.147 621.628C601.188 621.628 610.9 623.336 618.898 626.791C625.367 629.584 630.093 632.976 637.644 639.67C647.832 648.685 679.288 654.78 707.747 654.78C711.782 654.78 715.644 655.519 719.275 656.947L719.29 656.934ZM719.29 296.673V297.961L710.932 299.363C687.501 303.29 673.178 304.527 657.242 302.857C648.884 301.964 643.293 301.875 635.195 302.156C628.782 302.385 627.01 302.373 624.2 301.913C618.004 300.918 611.908 297.527 600.655 288.665C585.957 277.1 578.449 273.033 557.209 263.419C553.405 261.697 550.769 260.448 548.132 259.109C545.855 257.961 543.722 256.788 541.647 255.577C534.874 251.573 529.514 246.613 517.424 234.104C503.591 219.798 497.453 214.341 489.859 210.987C487.841 210.094 485.824 209.329 483.518 208.526C481.58 207.875 479.636 207.241 477.682 206.626C463.359 201.998 457.61 196.413 452.019 177.427C450.146 171.064 444.626 151.224 444.324 150.166C438.416 129.522 433.719 117.868 426.168 107.476C420.735 100.003 420.749 100.03 402.348 72.207L400.158 68.8918C391.513 55.8477 385.46 47.0878 380.057 39.9091C377.185 36.073 374.157 32.3303 370.979 28.6884C368.556 25.9688 366.116 23.2613 363.659 20.5661C357.905 14.2107 352.952 7.31845 348.889 0.0117508H350.502C354.444 7.0287 359.227 13.6504 364.769 19.7628C364.567 19.5333 370.302 25.8322 372.117 27.8978C375.32 31.5603 378.373 35.3242 381.268 39.1822C386.685 46.3865 392.738 55.1591 401.397 68.2287L403.602 71.544C421.974 99.3405 421.96 99.3151 427.378 106.775C435.044 117.32 439.785 129.075 445.721 149.847C446.024 150.905 451.543 170.745 453.402 177.082C456.428 187.322 459.886 193.85 464.209 198.058C467.696 201.45 471.212 203.158 478.187 205.415L484.051 207.327C486.242 208.069 488.392 208.903 490.492 209.827C498.346 213.295 504.542 218.803 518.519 233.263C530.508 245.67 535.84 250.604 542.44 254.493C544.532 255.721 546.67 256.887 548.852 257.986C551.46 259.326 554.082 260.55 557.858 262.258C579.199 271.923 586.792 276.055 601.606 287.708C612.701 296.417 618.58 299.694 624.459 300.651C627.125 301.085 628.84 301.085 635.123 300.868C643.307 300.587 648.956 300.689 657.414 301.569C673.15 303.226 687.372 302.002 710.658 298.088L719.29 296.66V296.673ZM719.29 394.331V397.009L713.094 395.236C708.338 393.91 703.324 392.776 698.107 391.819C679.763 388.44 664.057 387.65 638.596 387.65C630.367 387.65 624.546 390.022 624.546 392.916C624.546 396.665 632.63 401.791 649.157 406.853C690.009 419.336 709.203 435.708 709.203 461.592C709.203 490.18 707.257 498.901 694.663 523.332C692.521 527.462 690.095 531.473 687.401 535.343C684.807 539.104 675.052 551.638 673.395 554.265C669.994 559.62 669.49 563.191 671.968 566.659C672.544 567.462 673.28 568.265 674.202 569.081C676.159 570.83 678.015 572.664 679.763 574.577C680.955 575.864 682.128 577.165 683.28 578.479L684.432 579.754C693.972 590.363 700.817 594.2 714.966 594.2C716.437 594.2 717.863 594.226 719.29 594.29V596.84C717.863 596.776 716.437 596.751 714.966 596.751C699.808 596.751 692.228 592.505 682.17 581.335C681.397 580.488 680.628 579.638 679.865 578.784C678.942 577.727 678.236 576.962 677.545 576.196C675.85 574.345 674.051 572.57 672.155 570.88C671.104 569.936 670.225 568.992 669.533 568.023C666.363 563.598 667.012 559.098 670.873 553.015C672.616 550.274 682.401 537.676 684.937 534.017C687.573 530.229 689.945 526.303 692.041 522.26C704.447 498.199 706.321 489.835 706.321 461.592C706.321 437.047 688.02 421.439 648.206 409.237C630.555 403.83 621.664 398.195 621.664 392.903C621.664 388.058 628.956 385.087 638.596 385.087C664.245 385.087 680.095 385.89 698.683 389.295C704.015 390.276 709.102 391.437 713.958 392.801C715.831 393.311 717.604 393.821 719.29 394.319V394.331ZM719.29 584.638L717.935 584C711.714 580.966 705.338 578.187 698.828 575.673C689.764 572.192 684.937 568.303 683.669 563.892C682.3 559.123 684.735 554.775 691.061 547.877C697.401 540.953 698.064 540.137 698.41 538.02C698.727 535.981 700.052 532.563 702.661 526.723C703.381 525.065 708.929 512.978 710.658 509.063C712.387 505.148 713.9 501.604 715.24 498.238C716.826 494.285 718.18 490.612 719.29 487.209V491.608C718.483 493.852 717.589 496.197 716.595 498.672C715.129 502.31 713.596 505.928 711.998 509.522C710.269 513.45 704.735 525.55 704.001 527.195C701.436 532.933 700.139 536.312 699.822 538.199C699.433 540.672 698.813 541.425 692.185 548.68C686.133 555.272 683.856 559.34 685.067 563.586C686.19 567.538 690.715 571.16 699.404 574.5C706.186 577.117 712.822 580.019 719.29 583.196V584.638ZM719.29 440.693C717.476 435.386 714.395 430.485 710.255 426.323C708.295 424.347 705.269 422.09 701.191 419.514C699.087 418.175 696.724 416.773 693.928 415.166C692.063 414.092 690.19 413.03 688.308 411.978L687.228 411.379L685.11 410.193C682.725 408.88 680.389 407.498 678.107 406.049C676.046 404.71 674.894 403.728 674.562 402.938C674.029 401.637 675.254 401.038 677.501 401.038L680.542 401.026C690.499 400.962 696.853 401.128 704.073 401.918C709.257 402.423 714.361 403.44 719.29 404.952V406.317C714.317 404.742 709.151 403.694 703.9 403.193C696.753 402.402 690.456 402.237 680.556 402.3L677.501 402.313C676.103 402.313 675.887 402.415 675.917 402.504C676.118 402.963 677.141 403.843 678.942 405.017C681.207 406.452 683.522 407.821 685.888 409.122L687.992 410.295L689.073 410.907C690.957 411.967 692.84 413.03 694.721 414.095C697.531 415.702 699.908 417.13 702.041 418.481C706.191 421.108 709.304 423.416 711.336 425.494C714.704 428.864 717.394 432.72 719.29 436.894V440.693ZM719.29 674.952V676.699C714.347 672.402 707.286 670.081 697.675 670.081C670.873 670.081 672.674 670.132 667.746 668.78C664.965 668.015 662.357 666.867 658.192 664.611C657.184 664.075 646.953 658.337 642.544 655.965C635.382 652.089 618.768 641.889 615.799 640.397C607.038 635.96 598.421 634.378 580.956 634.378C569.645 634.378 560.495 631.19 547.181 624.051L540.508 620.429C538.438 619.306 536.323 618.247 534.169 617.254C529.629 615.188 525.839 614.092 522.237 613.913C516.79 613.658 511.732 615.571 506.531 620.161C499.153 626.703 498.706 631.127 503.865 634.442C508.072 637.145 515.018 638.879 527.598 640.894C529.082 641.149 534.226 641.94 534.183 641.94C540.912 642.998 544.745 643.725 548.016 644.617C554.385 646.339 558.982 649.335 565.682 655.277L570.293 659.434C579.501 667.569 586.879 671.777 598.392 673.919L606.347 675.398C612.255 676.507 616.491 677.387 620.67 678.369C640.468 683.048 658.092 690.674 685.11 707.173C701.162 716.966 712.301 721.263 719.29 721.097V722.372C711.854 722.525 700.485 718.1 684.303 708.218C657.4 691.808 639.921 684.247 620.295 679.605C616.145 678.624 611.938 677.756 606.044 676.647L598.104 675.168C586.26 672.963 578.651 668.627 569.284 660.326C568.363 659.523 565.25 656.705 564.659 656.182C558.117 650.355 553.679 647.486 547.598 645.828C543.108 644.71 538.546 643.828 533.938 643.189L527.352 642.156C514.528 640.091 507.467 638.331 503.015 635.475C497.035 631.65 497.568 626.294 505.522 619.269C510.997 614.423 516.445 612.357 522.323 612.638C526.157 612.83 530.119 613.977 534.831 616.12C537.015 617.124 539.159 618.196 541.258 619.333L547.93 622.954C561.043 629.992 569.977 633.104 580.956 633.104C598.652 633.104 607.514 634.736 616.52 639.287C619.546 640.818 636.189 651.031 643.293 654.869C647.702 657.253 657.962 662.991 658.942 663.514C663.005 665.72 665.527 666.829 668.164 667.556C672.89 668.857 671.19 668.806 697.675 668.806C707.07 668.806 714.159 670.973 719.29 674.952ZM506.026 722.168C506.026 720.025 505.695 718.292 504.138 711.534L503.461 708.499C501.199 697.967 501.588 692.28 506.819 689.972C510.781 688.212 515.263 690.571 520.767 696.028C522.827 698.112 524.783 700.273 526.632 702.506C527.641 703.705 531.805 708.741 532.785 709.889C534.802 712.261 536.2 713.676 537.151 714.313C539.548 715.917 542.225 717.161 545.077 717.998C544.788 717.909 564.746 723.124 577.094 726.873C588.406 730.316 592.542 733.962 589.473 738.119C587.455 740.81 583.363 742.786 573.579 746.535C566.922 749.059 565.279 749.722 562.916 750.87C551.129 756.672 528.477 755.843 515.551 750.934C513.394 750.203 511.478 749.006 509.977 747.451C508.477 745.896 507.441 744.034 506.963 742.034C506.012 738.731 505.882 735.837 505.998 727.013L506.026 722.168ZM508.909 722.168C508.909 723.609 508.909 724.833 508.879 727.039C508.692 742.429 509.701 745.948 516.675 748.588C528.88 753.216 550.61 754.019 561.518 748.651C564.011 747.427 565.668 746.764 572.441 744.189C581.519 740.72 585.525 738.782 587.052 736.717C588.608 734.625 585.899 732.253 576.173 729.296C565.548 726.172 554.864 723.209 544.126 720.408C540.994 719.485 538.054 718.115 535.422 716.354C534.169 715.524 532.684 713.995 530.48 711.432C529.471 710.259 525.336 705.222 524.327 704.036C522.165 701.461 520.335 699.446 518.606 697.725C513.952 693.096 510.393 691.234 508.116 692.242C504.629 693.785 504.297 698.707 506.286 708.027L506.963 711.024C508.563 718.024 508.909 719.771 508.909 722.168ZM719.29 281.461C701.624 285.86 698.929 286.268 691.911 286.268C687.113 286.268 682.876 286.434 675.571 286.816C660.685 287.62 656.117 287.645 650.973 286.484C644.143 284.942 640.742 281.117 640.742 274.154V241.002C640.742 235.8 643.408 234.385 650.987 233.441C652.126 233.314 652.385 233.276 652.889 233.199C660.599 232.128 663.812 229.629 663.812 221.876C663.812 217.235 664.389 214.812 665.786 213.678C666.982 212.708 667.861 212.708 671.449 213.219C679.029 214.303 684.202 212.581 691.335 203.655C697.747 195.597 699.059 188.826 696.19 182.553C693.972 177.707 690.196 173.971 681.781 167.354L680.009 165.951L678.236 164.561C676.829 163.446 675.455 162.298 674.115 161.119C670.149 157.549 666.872 153.426 664.417 148.916C663.322 146.978 663.178 146.723 660.627 141.699C656.694 133.921 654.143 130.211 649.648 126.729C645.325 123.376 642.659 120.775 640.944 118.187C638.278 114.132 637.875 111.224 637.875 100.743C637.875 93.1185 631.65 87.2786 616.275 77.7918L610.467 74.1961C608.306 72.8445 606.577 71.7225 605.007 70.6387C590.424 60.6037 590.02 45.9275 606.39 31.4426C614.359 24.3786 634.388 18.475 661.881 14.0504C681.695 10.8627 704.332 8.72057 719.29 8.35077V9.62586C704.419 10.0084 681.867 12.1251 662.141 15.3C634.95 19.6735 615.093 25.5261 607.398 32.3351C591.62 46.2972 592.009 60.0809 605.9 69.6441C607.442 70.7024 609.156 71.8117 611.304 73.1506L617.096 76.7335C632.875 86.4882 639.315 92.5187 639.315 100.743C639.315 110.995 639.691 113.762 642.198 117.536C643.812 119.984 646.376 122.509 650.599 125.76C655.296 129.407 657.933 133.245 661.953 141.176C663.121 143.598 664.371 145.987 665.7 148.342C668.084 152.734 671.267 156.749 675.124 160.226C677.002 161.883 678.948 163.477 680.96 165.008L682.746 166.41C691.321 173.143 695.197 176.981 697.516 182.068C700.586 188.775 699.203 195.992 692.502 204.383C685.052 213.728 679.317 215.629 671.219 214.481C668.164 214.047 667.472 214.047 666.752 214.608C665.758 215.424 665.254 217.592 665.254 221.876C665.254 230.33 661.464 233.301 653.12 234.462L651.189 234.716C644.244 235.571 642.198 236.667 642.198 241.002V274.154C642.198 280.53 645.137 283.845 651.334 285.248C656.276 286.37 660.801 286.332 675.484 285.541C680.952 285.202 686.43 285.019 691.911 284.993C698.799 284.993 701.465 284.585 719.29 280.135V281.461ZM719.29 264.018C709.808 265.688 703.856 266.071 697.906 265.752C696.897 265.701 695.83 265.625 694.476 265.522L690.787 265.229C685.297 264.795 680.744 264.591 674.62 264.591C667.501 264.591 663.438 262.73 662.487 259.224C661.65 256.189 663.264 252.134 666.81 247.493C673.323 239.026 685.643 229.654 694.519 226.39C711.004 220.308 717.128 208.386 717.128 183.624C717.128 172.658 713.742 165.364 705.773 157.267C703.958 155.419 684.159 138.065 676.954 130.491C668.207 121.298 666.017 115.483 664.965 104.199C664.317 97.1607 663.668 94.0236 661.564 89.6119C658.755 83.772 653.668 77.6771 645.295 70.6131C634.114 61.1393 632.442 53.7183 639.1 48.3374C644.33 44.1041 654.345 41.3755 668.265 39.6414C675.715 38.7106 679.418 38.4428 693.309 37.6267C698.713 37.308 700.975 37.4099 719.29 38.7998V40.0749C700.989 38.685 698.713 38.5831 693.395 38.9018C679.562 39.7179 675.873 39.9856 668.467 40.9037C654.821 42.5996 645.022 45.2772 640.08 49.2682C634.157 54.0626 635.641 60.6548 646.304 69.6696C654.806 76.8738 659.994 83.109 662.875 89.115C665.08 93.6794 665.743 96.9305 666.391 103.906C667.429 115.126 669.533 120.698 678.063 129.662C685.211 137.185 705.009 154.527 706.868 156.439C715.053 164.753 718.569 172.339 718.569 183.624C718.569 208.845 712.2 221.239 695.081 227.563C686.478 230.738 674.36 239.945 668.005 248.22C664.663 252.58 663.178 256.329 663.884 258.93C664.648 261.735 668.092 263.317 674.62 263.317C680.786 263.317 685.383 263.521 690.917 263.954L694.606 264.247C695.946 264.362 696.983 264.426 697.992 264.489C703.871 264.795 709.779 264.413 719.29 262.717V264.018ZM719.29 118.977C714.592 115.764 702.301 107.59 698.683 105.078C688.626 98.0912 680.844 88.4385 678.596 80.3422C676.133 71.4037 680.686 65.6786 691.911 65.6786C697.704 65.6786 699.347 65.7295 719.29 66.6221V67.8972C699.332 67.0046 697.675 66.9537 691.911 66.9537C681.651 66.9537 677.747 71.8755 680.009 80.036C682.17 87.8269 689.764 97.2493 699.562 104.071C702.963 106.443 714.073 113.826 719.29 117.37V118.977ZM230.859 131.549C234.764 127.163 238.208 122.624 242.027 116.962C242.949 115.611 249.088 106.226 250.816 103.766C260.903 89.3951 270.054 84.6392 287.316 88.0184C296.712 89.8666 303.311 93.7942 308.124 99.9908C311.914 104.875 314.262 110.281 317.576 120.494C322.548 135.757 323.326 137.938 326.625 144.491C328.354 147.938 330.368 151.266 332.649 154.45C342.836 168.616 343.745 178.804 337.376 190.101C334.825 194.64 321.525 212.033 321.51 212.033C319.962 214.204 318.486 216.415 317.087 218.663C304.363 239.115 282.273 262.36 271.192 262.679C266.206 262.819 261.725 260.142 256.408 254.671C255.111 253.358 253.799 251.892 252.157 249.979C251.364 249.061 248.468 245.67 247.833 244.955C242.934 239.255 239.49 235.8 235.658 233.071C215.743 218.892 194.331 199.218 189.143 189.26C181.16 173.882 180.829 163.962 189.316 154.36C192.976 150.216 198.74 147.157 208.553 143.421C209.489 143.05 216.406 140.488 218.265 139.748C223.525 137.683 226.623 136.051 228.265 134.342C229.13 133.424 229.994 132.493 230.859 131.537V131.549ZM230.455 135.999C228.453 138.078 225.067 139.863 219.432 142.082C217.559 142.821 210.614 145.397 209.691 145.754C200.325 149.336 194.849 152.231 191.592 155.929C183.884 164.638 184.172 173.589 191.766 188.188C196.694 197.688 217.876 217.133 237.473 231.082C241.536 233.977 245.11 237.56 250.139 243.412L254.434 248.437C255.767 249.997 257.151 251.524 258.584 253.014C263.381 257.948 267.229 260.244 271.105 260.129C280.673 259.861 302.403 236.999 314.55 217.439C315.948 215.195 317.432 212.977 319.061 210.681C319.176 210.528 332.347 193.327 334.796 188.966C340.704 178.485 339.869 169.253 330.214 155.814C327.861 152.524 325.785 149.085 324.003 145.524C320.617 138.83 319.824 136.599 314.81 121.196C311.582 111.25 309.305 106.022 305.731 101.432C301.351 95.7706 295.386 92.2133 286.682 90.517C270.803 87.406 262.762 91.5756 253.252 105.117C251.551 107.54 245.442 116.886 244.491 118.275C240.615 124.013 237.113 128.643 233.107 133.118C232.243 134.099 231.364 135.056 230.455 135.999ZM618.854 271.604C600.41 271.604 594.732 268.493 575.957 248.041C573.166 244.992 570.66 241.746 568.463 238.338C566.302 235.022 564.4 231.541 562.441 227.499C561.676 225.918 560.927 224.337 559.99 222.272L557.728 217.274C552.21 205.288 548.074 199.753 540.364 196.081C537.166 194.551 534.024 193.264 530.523 191.963C528.689 191.286 526.844 190.631 524.99 189.999L523.923 189.616L521.848 188.903C510.292 184.822 504.441 181.188 498.072 172.709C496.37 170.451 494.441 168.335 492.308 166.384C490.366 164.623 488.302 162.971 486.127 161.437C485.637 161.093 481.516 158.186 480.391 157.357C474.411 152.92 471.89 149.056 471.89 142.681C471.89 138.753 470.982 135.515 468.863 130.478C465.953 123.567 465.492 122.152 465.694 119.053C465.881 115.827 467.51 112.869 470.867 109.898C472.74 108.241 479.268 102.822 480.636 101.585C487.841 95.1329 490.608 89.5478 490.608 78.9266C490.647 73.7876 490.863 68.6509 491.256 63.5237C492.51 43.2116 492.078 35.5484 488.072 31.2896C479.757 22.4787 484.138 16.4476 499.253 16.4476C514.715 16.4476 528.073 27.4133 528.073 40.6742C528.073 46.7946 530.133 51.2828 533.361 52.5834C536.935 54.0115 542.224 51.7164 548.592 44.9585C564.919 27.6173 578.507 30.6265 578.507 54.7001C578.374 61.5127 581.059 68.1333 586.058 73.3162C589.963 77.4985 594.502 80.7117 603.09 85.8758L606.332 87.8143C612.917 91.7671 616.563 94.2024 619.877 97.1473C628.826 105.066 630.886 109.006 629.805 113.788L629.474 115.062C629.138 116.169 628.959 117.309 628.941 118.454C628.941 120.495 629.906 121.527 637.904 128.885C644.633 135.069 647.674 139.174 647.674 143.956C647.674 145.652 649.331 148.368 652.645 152.18C654.057 153.8 655.728 155.597 657.976 157.918L664.158 164.191C666.028 166.095 667.864 168.025 669.663 169.98C680.556 181.877 684.36 189.91 679.058 195.75C675.959 199.192 672.559 201.029 668.596 201.654C665.657 202.125 663.366 201.985 658.077 201.283C649.648 200.174 645.944 200.455 641.362 203.617C637.068 206.575 636.722 207.391 637.918 208.424C638.292 208.743 640.267 210.146 640.714 210.477C644.316 213.295 645.858 216.661 644.777 221.953C643.567 227.818 638.855 229.055 630.238 227.971L627.99 227.665C622.716 226.9 620.886 226.798 619.632 227.346C618.393 227.907 618.277 229.769 620.209 234.015L620.627 234.958C628.61 252.529 629.402 254.416 630.238 259.733C631.449 267.422 627.932 271.604 618.854 271.604ZM618.854 269.054C626.059 269.054 628.364 266.326 627.385 260.077C626.592 255.092 625.799 253.154 617.946 235.915L617.514 234.958C615.122 229.642 615.295 226.416 618.35 225.064C620.41 224.159 622.327 224.273 628.436 225.14L630.642 225.447C637.904 226.364 641.117 225.523 641.938 221.506C642.832 217.133 641.693 214.647 638.797 212.389C638.466 212.135 636.405 210.681 635.915 210.248C633.091 207.825 634.114 205.377 639.589 201.602C644.979 197.905 649.345 197.561 658.495 198.772C668.221 200.047 672.041 199.435 676.81 194.156C680.844 189.706 677.458 182.553 667.429 171.587C665.844 169.866 664.143 168.081 661.982 165.862L655.786 159.576C653.509 157.229 651.809 155.406 650.354 153.735C646.665 149.477 644.791 146.417 644.791 143.956C644.791 140.079 642.054 136.369 635.829 130.657L632.385 127.52C631.102 126.321 630.137 125.391 629.315 124.498C627.168 122.19 626.059 120.291 626.059 118.454C626.059 117.141 626.246 116.146 626.664 114.501C626.894 113.609 626.909 113.596 626.966 113.277C627.831 109.503 626.174 106.328 617.845 98.9583C614.675 96.1527 611.145 93.7815 604.718 89.9181L601.476 87.9796C592.672 82.6881 587.974 79.3603 583.839 74.9484C578.41 69.307 575.49 62.1087 575.625 54.7001C575.625 33.1895 565.524 30.9581 550.797 46.5906C543.707 54.1136 537.238 56.9443 532.165 54.9041C527.67 53.0935 525.192 47.6744 525.192 40.6742C525.192 28.8797 513.173 18.9978 499.253 18.9978C486.371 18.9978 483.706 22.67 490.276 29.6575C495.003 34.6813 495.449 42.3827 494.138 63.6639L494.052 64.9645C493.663 71.4546 493.49 75.1524 493.49 78.9266C493.49 90.2496 490.406 96.4716 482.683 103.383C481.27 104.658 474.714 110.09 472.898 111.709C470.031 114.247 468.719 116.631 468.575 119.194C468.403 121.782 468.835 123.095 471.558 129.586C473.792 134.877 474.757 138.384 474.757 142.681C474.757 148.202 476.861 151.402 482.25 155.406C483.317 156.21 487.438 159.091 487.942 159.461C490.204 161.058 492.349 162.779 494.369 164.612C496.624 166.672 498.665 168.908 500.464 171.294C506.473 179.275 511.862 182.642 522.914 186.531L524.975 187.258L526.041 187.615C527.908 188.271 529.772 188.934 531.632 189.604C535.072 190.866 538.439 192.278 541.719 193.837C550.192 197.866 554.645 203.808 560.394 216.317L562.671 221.315C563.593 223.355 564.328 224.936 565.077 226.479C566.802 230.105 568.765 233.639 570.956 237.062C573.077 240.355 575.495 243.489 578.19 246.435C596.49 266.351 601.433 269.054 618.868 269.054H618.854ZM503.922 99.1878C506.127 95.2864 506.833 90.8485 506.372 85.5696C506.084 82.3439 505.479 79.3089 504.225 74.3492C502.51 67.5147 502.236 66.2778 502.006 63.7276C501.675 60.1829 502.251 57.5817 504.024 55.7074C505.911 53.6928 507.942 53.2082 510.104 54.1008C512.093 54.9424 512.611 55.4396 517.41 60.5399C521.632 65.0409 524.369 66.9537 527.626 66.9537C538.145 66.9537 542.065 65.3088 550.134 56.9697C554.889 52.0479 559.99 49.4085 563.996 50.2373C568.679 51.1937 571.23 56.5617 571.23 66.3161C571.23 75.4712 577.873 82.5101 592.384 91.8557C593.393 92.4934 600.41 96.9052 602.283 98.1553C605.131 99.9386 607.784 101.953 610.208 104.173C611.62 105.525 612.658 106.838 613.306 108.126C615.122 111.76 615.568 114.566 615.814 120.66C616.203 130.427 617.903 134.52 626.045 139.761C629.172 141.776 631.809 143.727 634.114 145.728C637.846 149.025 641.086 152.732 643.754 156.758C643.869 156.949 652.673 170.389 656.478 175.629C659.965 180.423 659.418 183.853 655.368 186.111C652.443 187.742 648.826 188.533 640.454 189.77C633.134 190.841 630.252 191.389 627.586 192.397C624.272 193.633 622.918 195.214 623.436 197.522C625.223 205.428 625.439 208.934 623.725 211.522C621.707 214.545 617.068 215.514 608.263 214.864C605.439 214.659 604.128 216.19 603.882 219.657C603.695 222.514 604.17 225.906 605.496 232.332L605.67 233.211C607.758 243.374 608.148 246.88 606.721 249.431C604.661 253.141 599.127 251.471 589.127 244.037C579.717 237.05 573.55 230.521 569.631 223.942C566.792 219.173 565.812 216.368 563.722 208.437C561.244 199.142 558.665 195.176 550.307 190.535C543.463 186.76 523.476 176.84 520.277 175.055C512.107 170.478 507.165 166.384 503.937 160.965C501.948 157.65 499.873 154.947 495.19 149.273L493.735 147.513C485.493 137.504 482.236 131.829 482.236 124.97C482.236 119.589 484.196 116.695 489.109 113.328C489.729 112.894 492.308 111.199 492.957 110.778C494.528 109.694 495.81 108.738 497.035 107.654C499.855 105.197 502.184 102.334 503.922 99.1878ZM505.219 99.7487C503.202 103.319 500.853 106.124 498.058 108.572C496.761 109.681 495.449 110.676 493.836 111.773C493.173 112.219 490.594 113.915 489.988 114.336C485.406 117.485 483.677 120.022 483.677 124.97C483.677 131.46 486.847 136.956 494.888 146.761L496.343 148.521C501.083 154.246 503.173 156.975 505.205 160.379C508.303 165.556 513.058 169.509 521.056 173.971C524.211 175.743 544.183 185.651 551.057 189.464C559.803 194.296 562.555 198.555 565.106 208.157C567.196 215.973 568.132 218.702 570.899 223.355C574.732 229.782 580.784 236.17 590.064 243.068C599.372 249.992 604.026 251.395 605.424 248.87C606.635 246.702 606.246 243.158 604.257 233.441L604.07 232.548C602.729 226.02 602.24 222.578 602.456 219.581C602.744 215.488 604.589 213.308 608.379 213.588C616.678 214.2 620.828 213.333 622.471 210.872C623.941 208.666 623.739 205.338 622.025 197.778C621.347 194.781 623.148 192.677 627.024 191.223C629.835 190.165 632.788 189.604 639.705 188.584L640.224 188.507C648.365 187.308 651.91 186.531 654.605 185.039C657.918 183.178 658.351 180.551 655.267 176.318C651.434 171.039 642.63 157.586 642.514 157.434C639.907 153.496 636.74 149.871 633.091 146.646C630.627 144.52 627.988 142.559 625.194 140.781C616.621 135.273 614.776 130.822 614.387 120.711C614.142 114.77 613.71 112.091 611.981 108.649C611.404 107.501 610.453 106.29 609.156 105.028C606.793 102.864 604.207 100.902 601.433 99.1624C599.56 97.9385 592.556 93.552 591.533 92.8764C576.677 83.3131 569.789 76.0195 569.789 66.3161C569.789 57.0845 567.484 52.2646 563.68 51.4741C560.337 50.7856 555.682 53.2082 551.229 57.8113C542.886 66.4181 538.564 68.2287 527.626 68.2287C523.779 68.2287 520.796 66.1375 516.301 61.356C511.732 56.5107 511.171 55.9625 509.485 55.2612C507.958 54.6236 506.617 54.9424 505.119 56.5235C502.453 59.3669 502.741 62.5419 505.637 74.0686C506.891 79.0797 507.51 82.1651 507.798 85.4676C508.288 90.9506 507.539 95.6305 505.205 99.7487H505.219ZM499.6 135.451C495.536 128.247 496.43 124.027 501.574 119.003C502.294 118.288 505.133 115.687 505.709 115.152C511.315 109.796 513.937 104.862 513.937 96.9178C513.937 82.4207 515.969 79.067 525.595 76.3893C526.791 76.0578 532.223 74.6679 533.693 74.2727C537.483 73.2526 540.941 72.1814 544.644 70.8298C552.094 68.114 556.633 67.4637 559.4 68.6368C561.72 69.6186 562.541 71.3144 563.42 75.484C564.04 78.4421 564.184 79.0542 564.645 80.3928C565.48 82.7522 566.662 84.6645 568.478 86.2588C569.919 87.5334 571.547 88.8341 573.752 90.479C574.775 91.2441 578.796 94.1898 579.717 94.8908C592.024 104.071 597.513 110.74 597.513 119.87C597.513 124.664 599.358 128.731 603.277 133.372C605.251 135.719 618.133 148.189 622.097 152.78C625.232 156.395 628.064 160.209 630.569 164.191C634.229 170.032 635.209 173.564 633.783 175.641C632.63 177.325 630.8 177.746 625.857 178.115C624.987 178.17 624.117 178.238 623.249 178.32C616.433 179.008 613.364 181.176 613.364 187.449C613.364 196.515 611.592 198.733 605.568 199.855C598.925 201.08 595.914 202.533 591.634 208.207C587.815 213.269 583.824 213.703 579.789 210.146C576.908 207.596 574.746 204.242 569.89 195.673C565.135 187.245 562.973 183.943 560.265 181.52C557.435 178.978 554.304 176.713 550.927 174.762C548.765 173.512 546.546 172.428 543.535 171.09L537.339 168.387C534.702 167.226 532.482 166.194 530.163 165.058C515.292 157.74 508.865 151.836 499.614 135.451H499.6ZM530.868 163.936C533.16 165.071 535.365 166.092 537.987 167.251L544.183 169.942C546.773 171.064 549.289 172.316 551.719 173.691C555.175 175.694 558.378 178.02 561.273 180.628C564.155 183.178 566.331 186.518 571.172 195.099C575.927 203.515 578.089 206.83 580.812 209.253C584.184 212.224 587.109 211.905 590.424 207.494C594.949 201.5 598.292 199.894 605.266 198.606C610.597 197.611 611.923 195.941 611.923 187.449C611.923 180.436 615.626 177.797 623.09 177.057C623.811 176.981 624.272 176.942 625.742 176.84C630.151 176.521 631.751 176.139 632.544 174.978C633.609 173.449 632.73 170.274 629.301 164.804C626.83 160.879 624.037 157.12 620.944 153.557C617.053 149.031 604.156 136.547 602.11 134.125C598.032 129.292 596.072 124.97 596.072 119.87C596.072 111.237 590.784 104.823 578.781 95.86L572.83 91.4609C570.976 90.0953 569.188 88.6616 567.469 87.1639C565.489 85.3782 564.048 83.1818 563.276 80.7758C562.786 79.373 562.627 78.7354 561.994 75.7134C561.201 71.952 560.523 70.5238 558.78 69.7843C556.489 68.8152 552.296 69.4273 545.192 72.003C541.564 73.325 537.866 74.4909 534.111 75.4967C532.626 75.892 527.194 77.2817 526.027 77.6133C517.093 80.1001 515.378 82.9175 515.378 96.9178C515.378 105.206 512.597 110.447 506.761 116.019C506.185 116.58 503.346 119.155 502.64 119.857C497.885 124.511 497.092 128.17 500.897 134.89C510.018 151.045 516.243 156.758 530.868 163.936ZM548.06 92.7102C557.354 96.5103 570.049 114.107 570.049 126.806C570.049 133.603 565.754 136.445 558.723 135.872C553.708 135.463 547.325 133.194 543.433 130.861L540.091 128.923C538.761 128.166 537.464 127.366 536.2 126.525C529.284 121.859 525.465 116.516 525.465 109.159C525.465 97.6069 539.183 89.0762 548.06 92.7102ZM547.454 93.8582C539.572 90.6444 526.906 98.5121 526.906 109.159C526.906 116.044 530.479 121.056 537.079 125.505C538.232 126.271 539.385 126.998 540.883 127.864C540.883 127.864 543.578 129.394 544.241 129.802C547.944 132.021 554.112 134.214 558.852 134.61C565.092 135.119 568.607 132.786 568.607 126.806C568.607 114.603 556.244 97.4535 547.454 93.8709V93.8582ZM577.34 182.693C577.599 180.04 578.507 177.032 579.933 175.195C582.052 172.492 585.121 172.39 588.652 175.527C596.072 182.081 594.905 191.912 586.706 191.912C579.991 191.912 576.85 187.908 577.34 182.693ZM578.781 182.808C578.349 187.347 580.942 190.637 586.706 190.637C593.305 190.637 594.286 182.31 587.643 176.419C584.703 173.831 582.7 173.895 581.13 175.91C579.861 177.529 579.012 180.347 578.781 182.795V182.808ZM253.194 145.078C256.58 139.162 265.067 123.057 266.783 120.354C268.829 116.932 271.585 113.882 274.909 111.365C277.276 109.616 279.78 108.018 282.403 106.583C287.849 103.523 293.44 106.532 299.161 114.489C303.715 120.826 308.239 130.019 313.311 142.477C315.818 148.648 322.937 167.507 323.686 169.381C327.044 177.784 323.83 188.316 315.242 201.437C311.971 206.448 308.038 211.637 302.936 217.937C300.616 220.779 292.864 230.05 291.625 231.58C288.626 235.09 285.882 238.765 283.411 242.583C279.664 248.729 273.843 248.258 265.932 242.367C260.342 238.198 259.203 237.05 242.401 219.288C238.793 215.426 235.074 211.646 231.248 207.952C229.09 205.878 226.85 203.871 224.533 201.934C216.709 195.456 215.181 189.438 218.885 182.846C220.47 179.99 222.991 177.07 226.839 173.372C228.813 171.485 236.522 164.523 237.934 163.197C245.01 156.566 249.75 151.135 253.208 145.091L253.194 145.078ZM254.491 145.664C250.96 151.848 246.147 157.369 238.986 164.076C237.545 165.416 229.85 172.365 227.905 174.239C224.144 177.848 221.709 180.691 220.167 183.42C216.766 189.476 218.15 194.895 225.513 201.016C227.854 202.969 230.118 204.993 232.3 207.085C235.614 210.248 238.957 213.665 243.496 218.459C260.212 236.132 261.365 237.292 266.855 241.385C274.174 246.842 278.959 247.225 282.143 241.972C283.872 239.128 286.451 235.723 290.457 230.828C291.711 229.297 299.449 220.028 301.769 217.184C306.151 211.905 310.235 206.437 314.003 200.799C322.389 187.971 325.502 177.759 322.332 169.815C321.582 167.927 314.45 149.069 311.957 142.91C306.913 130.542 302.432 121.413 297.951 115.177C292.604 107.731 287.72 105.104 283.166 107.654C280.604 109.059 278.158 110.622 275.846 112.334C272.65 114.754 270.001 117.688 268.036 120.979C266.364 123.631 257.877 139.697 254.491 145.664ZM266.09 195.176C265.557 191.211 265.904 187.908 267.099 184.466C268.05 181.724 268.44 180.972 272.532 173.449C275.832 167.392 278.094 162.75 280.543 156.63C284.823 145.945 289.521 142.197 294.608 145.371C298.844 148.024 303.138 155.623 307.836 168.119C311.899 178.893 311.222 187.857 306.538 195.444C302.864 201.373 297.172 206.065 288.815 210.936C282.46 214.634 276.999 214.417 272.877 210.732C269.347 207.569 267.013 201.973 266.106 195.176H266.09ZM267.532 195.023C268.396 201.564 270.644 206.92 273.9 209.839C277.504 213.065 282.215 213.257 288.023 209.865C296.207 205.109 301.725 200.557 305.271 194.819C309.752 187.551 310.414 178.97 306.481 168.527C301.87 156.299 297.663 148.839 293.772 146.417C289.809 143.944 285.918 147.055 281.898 157.064C279.42 163.235 277.143 167.902 273.828 173.997C269.78 181.443 269.405 182.183 268.483 184.835C267.322 188.132 266.997 191.615 267.532 195.036V195.023ZM575.741 506.857C582.628 506.857 586.634 508.706 588.608 512.506C590.121 515.426 590.38 518.308 590.338 526.264L590.323 528.534C590.323 540.251 579.3 550.21 567.988 550.21C557.051 550.21 552.843 536.694 560.149 525.04C562.383 521.495 562.945 519.672 564.112 514.113C565.308 508.451 567.382 506.857 575.741 506.857ZM575.741 508.133C568.103 508.133 566.605 509.28 565.538 514.355C564.343 520.029 563.737 521.954 561.417 525.652C554.558 536.58 558.391 548.935 567.988 548.935C578.507 548.935 588.882 539.55 588.882 528.534V526.251C588.94 518.524 588.68 515.72 587.297 513.041C585.567 509.726 582.109 508.133 575.741 508.133ZM405.922 465.634C404.034 460.904 402.032 454.541 399.366 445.105C398.43 441.815 393.544 424.028 392.089 418.889C384.985 393.91 379.264 378.661 372.852 370.143C358.514 351.106 324.032 323.13 303.974 314.256C297.489 311.387 294.78 308.327 294.968 304.464C295.054 302.857 295.616 301.135 296.697 298.955C297.447 297.423 298.265 295.917 299.146 294.442L300.054 292.835C303.427 286.74 305.011 282.15 305.011 276.704C305.011 267.524 309.435 263.941 316.409 266.058C322.26 267.843 329.248 273.606 333.73 280.211C340.906 290.794 358.658 295.193 382.103 295.193C387.276 295.193 391.152 296.94 394.149 300.268C396.426 302.793 397.896 305.624 400.144 311.069L400.677 312.369C403.199 318.553 404.668 321.269 407.104 323.437C414.453 329.927 417.407 339.426 417.407 349.385C417.407 351.145 418.733 352.534 421.874 354.472C422.465 354.842 424.683 356.155 425.015 356.347C430.664 359.764 433.258 362.633 433.258 367.236C433.258 377.233 434.598 380.93 443.258 394.982C447.321 401.587 448.416 406.202 448.56 413.675C448.56 414.006 448.56 414.274 448.59 414.847C448.676 420.993 449.022 423.926 450.52 428.248C451.95 432.121 453.664 435.908 455.65 439.584C457.091 442.351 462.869 453.011 462.667 452.628C467.999 462.561 471.284 469.612 473.576 476.727C478.691 492.551 476.803 500.419 467.711 511.69C465.045 514.98 461.328 515.158 456.731 512.749C453.201 510.9 449.397 507.775 443.805 502.446L441.442 500.176C436.255 495.178 435.52 494.463 433.474 492.653C430.131 489.695 428.43 488.675 422.479 485.666C417.638 483.204 415.115 481.369 412.306 477.671C410.086 474.738 408.012 470.862 405.922 465.634ZM407.277 465.201C409.323 470.339 411.355 474.126 413.502 476.956C416.168 480.463 418.531 482.185 423.2 484.556C429.252 487.616 431.038 488.687 434.482 491.748C436.557 493.571 437.306 494.298 442.508 499.322L444.857 501.578C450.362 506.807 454.094 509.892 457.466 511.652C461.486 513.756 464.383 513.615 466.544 510.95C475.392 499.985 477.178 492.513 472.193 477.071C469.93 470.059 466.659 463.045 461.371 453.176C461.572 453.559 455.78 442.899 454.339 440.12C452.329 436.394 450.596 432.557 449.151 428.631C447.581 424.156 447.235 421.121 447.134 414.86V413.7C446.99 406.407 445.938 401.994 441.99 395.593C433.228 381.364 431.817 377.487 431.817 367.236C431.817 363.168 429.511 360.606 424.208 357.404L421.038 355.517C417.536 353.35 415.966 351.693 415.966 349.385C415.966 339.732 413.084 330.538 406.096 324.329C403.443 321.996 401.916 319.178 399.323 312.802L398.79 311.502C394.279 300.536 390.619 296.469 382.103 296.469C358.183 296.469 340.027 291.967 332.491 280.861C328.168 274.486 321.438 268.94 315.948 267.269C309.997 265.458 306.452 268.327 306.452 276.704C306.452 282.379 304.81 287.148 301.351 293.396C296.063 302.984 296.538 302.041 296.409 304.514C296.265 307.804 298.599 310.444 304.622 313.108C324.897 322.085 359.581 350.213 374.063 369.429C380.605 378.113 386.339 393.452 393.487 418.583C394.956 423.722 399.827 441.509 400.764 444.799C403.415 454.197 405.418 460.521 407.277 465.201ZM413.084 443.741C413.084 441.089 412.795 438.64 412.09 434.497C410.98 427.84 410.793 426.03 411.369 423.709C412.176 420.496 414.755 418.877 419.568 418.877C425.404 418.877 430.073 421.771 434.137 427.318C437.162 431.449 439.223 435.644 443.359 445.36L443.503 445.705L444.742 448.612C446.414 452.488 448.373 455.331 452.566 460.508L453.387 461.528C461.86 471.971 464.959 478.551 464.959 490.919C464.959 497.269 462.034 499.691 456.861 498.251C452.811 497.141 447.407 493.685 440.822 488.305C438.848 486.698 436.788 484.939 434.626 483.013C430.101 478.971 419.338 468.668 419.064 468.414C418.387 467.827 417.782 467.228 417.248 466.629C413.343 462.318 412.81 459.271 413.026 448.547C413.069 446.444 413.084 445.194 413.084 443.741ZM414.525 443.741C414.525 445.207 414.511 446.456 414.467 448.574C414.266 459.003 414.755 461.834 418.372 465.838C418.877 466.399 419.438 466.96 420.072 467.521C420.375 467.776 431.154 478.104 435.664 482.12C437.666 483.912 439.713 485.663 441.803 487.374C448.244 492.628 453.503 495.993 457.293 497.039C461.443 498.187 463.518 496.466 463.518 490.919C463.518 478.857 460.535 472.507 452.22 462.28L451.399 461.26C447.134 455.994 445.117 453.074 443.387 449.07L442.148 446.137L442.004 445.819C437.911 436.192 435.88 432.049 432.926 428.006C429.108 422.804 424.857 420.151 419.568 420.151C415.404 420.151 413.43 421.389 412.795 423.977C412.262 426.081 412.435 427.866 413.516 434.305C414.236 438.513 414.525 441.012 414.525 443.741ZM349.191 300.332C357.03 302.729 358.933 302.857 367.578 301.581C377.751 300.077 391.469 303.341 391.469 308.582C391.47 309.224 391.504 309.867 391.57 310.508L391.628 311.323C391.887 314.97 391.873 317.482 391.383 320.172C389.855 328.524 383.977 333.446 372.016 333.446C351.987 333.446 343.643 330.717 334.075 323.08C332.404 321.846 330.593 320.77 328.672 319.866C327.188 319.114 321.28 316.321 321.453 316.398C309.723 310.737 304.838 306.568 306.466 300.778C306.899 299.287 307.576 297.974 308.758 296.214L309.968 294.442C310.865 293.186 311.637 291.863 312.274 290.489C312.663 289.596 312.735 288.193 312.648 284.432L312.634 283.514C312.562 279.485 312.749 277.419 313.585 276.08C314.867 274.027 317.274 274.55 320.646 277.534C322.475 279.154 324.281 280.795 326.064 282.456C340.618 295.971 343.931 298.712 349.191 300.332ZM348.73 301.531C343.11 299.822 339.839 297.119 325.012 283.336C322.893 281.359 321.237 279.854 319.637 278.426C316.827 275.953 315.487 275.659 314.839 276.704C314.19 277.75 314.003 279.727 314.075 283.488L314.09 284.406C314.176 288.41 314.118 289.838 313.599 290.96C313.009 292.312 312.302 293.472 311.193 295.105L309.997 296.864C309.056 298.169 308.342 299.592 307.879 301.085C306.481 306.032 311.006 309.908 322.144 315.276C321.957 315.187 327.88 318.005 329.378 318.757C331.389 319.706 333.282 320.838 335.026 322.136C344.35 329.544 352.318 332.171 372.016 332.171C383.242 332.171 388.544 327.734 389.957 319.968C390.432 317.405 390.446 314.97 390.187 311.413C390.154 310.89 390.12 310.367 390.086 309.844C390.043 309.309 390.029 308.913 390.029 308.582C390.029 304.502 377.204 301.441 367.808 302.844C358.933 304.145 356.8 304.004 348.73 301.531ZM366.627 313.338C367.376 312.598 369.365 310.15 369.408 310.087C371.67 307.587 374.178 307.485 378.573 310.074C386.7 314.843 383.026 321.333 372.016 321.333C366.526 321.333 363.846 320.683 363.341 318.693C362.967 317.189 363.774 316.143 366.627 313.338ZM368.759 315.047C366.815 316.959 366.094 317.89 366.166 318.145C366.209 318.362 367.938 318.783 372.016 318.783C380.475 318.783 382.405 315.378 376.988 312.191C373.731 310.277 372.895 310.316 371.656 311.68C371.7 311.642 369.638 314.167 368.774 315.047H368.759ZM181.16 30.8305C179.575 28.0253 178.768 26.1509 177.76 23.333L177.63 22.976C176.339 19.1023 174.626 15.3486 172.514 11.768C169.517 6.45088 169.805 3.67126 173.725 2.89345C176.607 2.33242 179.503 2.63846 192.025 4.48733C211.651 7.38178 229.692 16.1671 244.332 31.4809C249.563 36.9637 250.658 40.9292 247.848 43.9129C245.586 46.31 241.262 47.8656 232.747 49.791C231.089 50.1735 224.346 51.6144 222.717 51.9842C218.236 52.9705 213.804 54.1233 209.432 55.4396C199.604 58.4998 193.898 59.3032 190.786 58.1173C188.149 57.1355 187.558 55.4651 187.255 50.9768C187.126 49.077 187.053 48.3119 186.852 47.1899L186.377 44.7035C186.203 43.7854 186.088 43.1478 185.958 42.5613C185.67 41.1587 185.411 40.1131 185.094 39.1057C184.388 36.9382 183.365 34.745 181.16 30.8305ZM182.457 30.2694C184.676 34.2349 185.756 36.4919 186.477 38.7488C186.809 39.8199 187.082 40.9037 187.385 42.3318C187.72 43.9463 188.022 45.5659 188.293 47.1899C188.48 48.1717 188.567 48.9622 188.696 50.9131C188.956 54.9041 189.432 56.2301 191.362 56.9569C194.013 57.9515 199.46 57.212 208.942 54.2411C213.356 52.9102 217.832 51.7445 222.357 50.7473L232.387 48.5541C240.6 46.6925 244.75 45.2134 246.738 43.0968C248.986 40.7124 248.079 37.3717 243.222 32.2969C228.813 17.2254 211.089 8.58029 191.78 5.73688C179.604 3.95177 176.635 3.63297 174.042 4.143C171.347 4.66579 171.159 6.51474 173.811 11.2071C175.951 14.8456 177.688 18.6588 178.999 22.5935L179.143 22.9505C180.004 25.4711 181.113 27.9201 182.457 30.2694ZM191.938 36.0073C191.478 34.2605 190.858 32.8196 189.892 31.0345C189.633 30.5882 188.005 27.7576 187.486 26.8013C186.463 24.8887 185.598 23.0143 184.763 20.8084C183.466 17.3656 183.653 14.8919 185.339 13.3109C186.693 12.0613 188.595 11.6023 191.362 11.513C191.939 11.4876 192.371 11.4875 193.336 11.4875C201.449 11.4875 217.66 17.3912 226.118 25.947C231.594 31.4809 232.847 35.2679 229.75 38.5958C227.3 41.2224 223.049 43.0586 211.147 47.1006C204.187 49.4723 199.475 49.7145 196.449 47.9676C193.999 46.5395 193.048 44.27 192.558 40.5339L192.385 38.9273C192.213 37.41 192.111 36.6959 191.938 35.9946V36.0073ZM195.252 38.685L195.426 40.2406C195.815 43.3008 196.521 44.9585 198.033 45.8383C200.095 47.024 203.941 46.8328 210.109 44.7289C221.406 40.8782 225.542 39.1058 227.53 36.9764C229.462 34.898 228.611 32.3351 223.956 27.63C216.06 19.648 200.656 14.0377 193.336 14.0377C192.414 14.0377 191.996 14.0377 191.478 14.0632C189.402 14.1269 188.12 14.4457 187.442 15.0705C186.621 15.8356 186.506 17.3656 187.5 20.0051C188.227 21.9516 189.094 23.8554 190.094 25.7048C190.584 26.6228 192.213 29.4407 192.486 29.9379C193.475 31.6814 194.23 33.5217 194.734 35.4209C194.964 36.2624 195.08 37.053 195.252 38.685Z" fill="#172624"/>
</g>
</svg>
