<svg width="13" height="13" viewBox="0 0 13 13" fill="none" xmlns="http://www.w3.org/2000/svg">
<path d="M6.81257 3.54492C8.4737 3.54492 9.84479 4.91602 9.84479 6.57715C9.84479 8.26465 8.4737 9.60938 6.81257 9.60938C5.12507 9.60938 3.78034 8.26465 3.78034 6.57715C3.78034 4.91602 5.12507 3.54492 6.81257 3.54492ZM6.81257 8.55469C7.89362 8.55469 8.76374 7.68457 8.76374 6.57715C8.76374 5.49609 7.89362 4.62598 6.81257 4.62598C5.70515 4.62598 4.83503 5.49609 4.83503 6.57715C4.83503 7.68457 5.73151 8.55469 6.81257 8.55469ZM10.6622 3.43945C10.6622 3.83496 10.3458 4.15137 9.95026 4.15137C9.55476 4.15137 9.23835 3.83496 9.23835 3.43945C9.23835 3.04395 9.55476 2.72754 9.95026 2.72754C10.3458 2.72754 10.6622 3.04395 10.6622 3.43945ZM12.6661 4.15137C12.7188 5.12695 12.7188 8.05371 12.6661 9.0293C12.6133 9.97852 12.4024 10.7959 11.7169 11.5078C11.0313 12.1934 10.1876 12.4043 9.23835 12.457C8.26276 12.5098 5.33601 12.5098 4.36042 12.457C3.4112 12.4043 2.59382 12.1934 1.8819 11.5078C1.19636 10.7959 0.98542 9.97852 0.932685 9.0293C0.879951 8.05371 0.879951 5.12695 0.932685 4.15137C0.98542 3.20215 1.19636 2.3584 1.8819 1.67285C2.59382 0.987305 3.4112 0.776367 4.36042 0.723633C5.33601 0.670898 8.26276 0.670898 9.23835 0.723633C10.1876 0.776367 11.0313 0.987305 11.7169 1.67285C12.4024 2.3584 12.6133 3.20215 12.6661 4.15137ZM11.4005 10.0576C11.7169 9.29297 11.6378 7.44727 11.6378 6.57715C11.6378 5.7334 11.7169 3.8877 11.4005 3.09668C11.1895 2.5957 10.794 2.17383 10.293 1.98926C9.50202 1.67285 7.65632 1.75195 6.81257 1.75195C5.94245 1.75195 4.09675 1.67285 3.3321 1.98926C2.80476 2.2002 2.40925 2.5957 2.19831 3.09668C1.8819 3.8877 1.96101 5.7334 1.96101 6.57715C1.96101 7.44727 1.8819 9.29297 2.19831 10.0576C2.40925 10.585 2.80476 10.9805 3.3321 11.1914C4.09675 11.5078 5.94245 11.4287 6.81257 11.4287C7.65632 11.4287 9.50202 11.5078 10.293 11.1914C10.794 10.9805 11.2159 10.585 11.4005 10.0576Z" fill="#172624"/>
</svg>
