<svg width="13" height="13" viewBox="0 0 13 13" fill="none" xmlns="http://www.w3.org/2000/svg">
<path d="M3.06304 12.2705H0.610893V4.38672H3.06304V12.2705ZM1.82378 3.33203C1.05913 3.33203 0.426322 2.67285 0.426322 1.88184C0.426322 1.11719 1.05913 0.484375 1.82378 0.484375C2.6148 0.484375 3.24761 1.11719 3.24761 1.88184C3.24761 2.67285 2.6148 3.33203 1.82378 3.33203ZM12.2125 12.2705H9.78667V8.44727C9.78667 7.52441 9.76031 6.36426 8.49468 6.36426C7.22906 6.36426 7.04449 7.33984 7.04449 8.36816V12.2705H4.59234V4.38672H6.93902V5.46777H6.96538C7.30816 4.86133 8.09917 4.20215 9.2857 4.20215C11.7642 4.20215 12.2388 5.83691 12.2388 7.94629V12.2705H12.2125Z" fill="#172624"/>
</svg>
