<svg width="45" height="45" viewBox="0 0 45 45" fill="none" xmlns="http://www.w3.org/2000/svg">
<g clip-path="url(#clip0_341_1908)">
<path d="M22.5 3.75C12.15 3.75 3.75 12.15 3.75 22.5C3.75 32.85 12.15 41.25 22.5 41.25C32.85 41.25 41.25 32.85 41.25 22.5C41.25 12.15 32.85 3.75 22.5 3.75ZM22.5 11.25C26.1187 11.25 29.0625 14.1938 29.0625 17.8125C29.0625 21.4312 26.1187 24.375 22.5 24.375C18.8813 24.375 15.9375 21.4312 15.9375 17.8125C15.9375 14.1938 18.8813 11.25 22.5 11.25ZM22.5 37.5C18.6938 37.5 14.1938 35.9625 10.9875 32.1C14.1562 29.625 18.15 28.125 22.5 28.125C26.85 28.125 30.8437 29.625 34.0125 32.1C30.8062 35.9625 26.3062 37.5 22.5 37.5Z" fill="#1D1E44"/>
</g>
<defs>
<clipPath id="clip0_341_1908">
<rect width="45" height="45" fill="white"/>
</clipPath>
</defs>
</svg>
